<!DOCTYPE svg PUBLIC "-//W3C//DTD SVG 20010904//EN" "http://www.w3.org/TR/2001/REC-SVG-20010904/DTD/svg10.dtd">
<svg version="1.0" xmlns="http://www.w3.org/2000/svg" width="128px" height="128px" viewBox="0 0 1280 1280" preserveAspectRatio="xMidYMid meet">
<g id="layer101" fill="#e42e2a" stroke="none">
<path d="M513 1218 c13 -24 46 -80 72 -126 27 -46 52 -79 56 -75 8 9 139 234 139 239 0 2 -66 4 -146 4 l-146 0 25 -42z"/>
</g>
<g id="layer102" fill="#528c80" stroke="none">
<path d="M135 1044 c-65 -16 -105 -27 -105 -30 0 -5 239 -413 256 -438 12 -18 13 -18 18 5 3 13 7 50 10 82 5 67 25 103 64 118 38 15 457 6 500 -11 18 -7 39 -25 48 -42 27 -53 0 -110 -79 -163 l-49 -33 67 -22 c38 -13 71 -18 75 -14 5 5 60 97 123 204 63 107 128 218 145 245 17 27 29 51 27 53 -1 2 -36 -7 -76 -20 -65 -20 -94 -23 -229 -22 -143 0 -170 4 -355 43 -191 41 -378 60 -440 45z"/>
<path d="M393 695 c-9 -7 -16 -50 -22 -133 -9 -117 -9 -125 12 -160 28 -49 33 -52 92 -52 l50 0 -32 16 c-117 58 -147 202 -56 271 30 23 47 27 118 31 84 4 179 -16 187 -40 3 -8 10 -8 25 1 12 6 28 9 35 6 7 -3 29 8 48 24 l35 29 -35 6 c-63 11 -442 12 -457 1z"/>
<path d="M535 585 c-48 -13 -95 -52 -95 -78 0 -7 9 -26 19 -43 31 -50 123 -88 228 -93 16 -1 46 -58 38 -71 -3 -6 -25 -10 -47 -10 -59 0 -218 -22 -218 -31 0 -3 7 -12 15 -19 8 -7 15 -16 15 -21 0 -14 97 -174 114 -188 28 -23 63 -4 104 57 38 57 192 325 192 335 0 3 -12 8 -27 12 -15 3 -51 18 -80 31 -46 22 -54 30 -63 66 -6 22 -9 46 -6 54 7 19 -118 18 -189 -1z m97 -80 c10 -22 9 -29 -9 -47 -28 -28 -70 -18 -79 19 -13 51 66 76 88 28z"/>
</g>


</svg>