<!DOCTYPE svg PUBLIC "-//W3C//DTD SVG 20010904//EN" "http://www.w3.org/TR/2001/REC-SVG-20010904/DTD/svg10.dtd">
<svg version="1.0" xmlns="http://www.w3.org/2000/svg" width="256px" height="256px" viewBox="0 0 2560 2560" preserveAspectRatio="xMidYMid meet">
<g id="layer101" fill="#e42c2a" stroke="#e42c2a" stroke-width="10" fill-rule="evenodd">
<path d="M970 2524 C970 2518,1259 2017,1268 2007 C1274 2001,1412 2231,1552 2481 L1580 2530 1275 2530 C1107 2530,970 2527,970 2524 " />
</g>
<g id="layer102" fill="#538c80" stroke="#538c80" stroke-width="10" fill-rule="evenodd">
<path d="M352 2104 C337 2101,295 2095,260 2089 C175 2076,50 2039,50 2028 C50 2021,192 1776,270 1650 C275 1641,334 1540,400 1425 C526 1207,600 1087,606 1092 C607 1094,616 1167,625 1255 C633 1343,645 1431,650 1451 C664 1502,726 1556,781 1565 C805 1568,1012 1569,1240 1567 C1678 1562,1738 1557,1798 1512 C1832 1488,1869 1415,1870 1374 C1870 1296,1784 1191,1658 1113 C1626 1093,1600 1073,1600 1069 C1600 1061,1814 982,1860 973 C1883 968,1891 980,1977 1128 C2028 1216,2070 1292,2070 1297 C2069 1301,2081 1322,2095 1342 C2109 1363,2117 1380,2113 1380 C2109 1380,2113 1385,2121 1392 C2130 1399,2187 1490,2249 1595 C2376 1812,2360 1784,2439 1916 C2472 1971,2500 2020,2500 2023 C2500 2027,2487 2024,2472 2016 C2380 1969,2179 1923,2008 1911 C1789 1894,1584 1914,1240 1986 C880 2061,778 2080,656 2094 C528 2110,402 2114,352 2104 " />
<path d="M796 1409 C759 1393,751 1362,739 1183 C733 1090,724 985,720 950 C711 878,713 872,776 767 C819 696,850 685,966 697 L1045 705 990 734 C914 773,827 859,798 923 C780 964,775 992,775 1060 C775 1135,778 1150,803 1193 C834 1246,908 1300,975 1318 C997 1324,1081 1329,1161 1329 C1295 1329,1315 1327,1381 1303 C1466 1273,1480 1264,1480 1238 C1480 1220,1482 1220,1523 1244 C1570 1272,1596 1276,1602 1257 C1606 1244,1723 1314,1754 1349 C1770 1367,1770 1368,1753 1378 C1743 1383,1719 1391,1700 1395 C1680 1400,1659 1405,1652 1406 C1615 1416,817 1418,796 1409 " />
<path d="M1125 1190 C965 1158,879 1096,880 1015 C881 879,1061 765,1307 744 C1387 738,1390 736,1410 704 C1439 657,1450 614,1437 601 C1430 594,1395 590,1357 589 C1320 589,1229 581,1157 570 C1084 559,999 547,967 543 L910 535 971 430 C1004 372,1045 298,1062 265 C1139 110,1212 30,1274 30 C1335 30,1433 161,1596 460 C1639 540,1679 612,1684 621 C1718 677,1810 838,1810 843 C1810 846,1793 853,1772 860 C1698 884,1544 953,1513 976 C1476 1003,1443 1106,1453 1164 L1460 1200 1315 1200 C1235 1200,1149 1195,1125 1190 M1147 1053 C1117 1038,1080 994,1080 973 C1080 961,1095 934,1114 914 C1153 873,1177 872,1231 911 C1278 944,1284 965,1259 1005 C1229 1053,1185 1072,1147 1053 " />
</g>

</svg>