<!DOCTYPE svg PUBLIC "-//W3C//DTD SVG 20010904//EN" "http://www.w3.org/TR/2001/REC-SVG-20010904/DTD/svg10.dtd">
<svg version="1.0" xmlns="http://www.w3.org/2000/svg" width="48px" height="48px" viewBox="0 0 480 480" preserveAspectRatio="xMidYMid meet">
<g id="layer101" fill="#e52a28" stroke="none">
 <path d="M180 470 c0 -5 9 -24 20 -42 27 -45 26 -47 -17 -37 -48 11 -154 11 -171 1 -9 -6 2 -33 45 -108 55 -94 58 -97 64 -69 6 27 7 25 8 -13 1 -60 15 -82 51 -82 17 0 30 4 30 9 0 4 12 6 28 3 23 -5 20 -7 -25 -16 l-53 -11 30 -52 c17 -29 37 -53 45 -53 8 0 27 17 41 38 40 59 205 345 200 349 -2 2 -15 -1 -30 -7 -31 -11 -196 -14 -196 -2 0 4 12 25 25 47 14 22 25 43 25 48 0 4 -27 7 -60 7 -33 0 -60 -4 -60 -10z m138 -186 c46 -13 19 -19 -83 -19 -99 0 -114 3 -98 18 8 9 150 9 181 1z m0 -59 c-34 -30 -34 -31 -2 -39 15 -4 24 -9 22 -12 -10 -9 -58 16 -58 30 0 8 12 21 28 29 39 21 41 20 10 -8z m-88 6 c-54 -8 -70 -17 -71 -39 0 -10 -3 -12 -5 -5 -3 7 0 21 6 32 9 17 20 21 63 20 l52 -2 -45 -6z"/>
 </g>
<g id="layer102" fill="#408278" stroke="none">
 <path d="M215 398 c6 -14 2 -15 -32 -7 -48 11 -154 11 -171 1 -9 -6 2 -33 45 -108 55 -94 58 -97 64 -69 6 27 7 25 8 -13 1 -60 15 -82 51 -82 17 0 30 4 30 9 0 4 12 6 28 3 23 -5 20 -7 -25 -16 l-53 -11 30 -52 c17 -29 37 -53 45 -53 8 0 27 17 41 37 40 60 205 346 200 350 -2 2 -15 -1 -30 -7 -15 -5 -65 -10 -111 -10 -74 0 -87 3 -105 23 -14 15 -19 16 -15 5z m103 -114 c46 -13 19 -19 -83 -19 -99 0 -114 3 -98 18 8 9 150 9 181 1z m0 -59 c-34 -30 -34 -31 -2 -39 15 -4 24 -9 22 -12 -10 -9 -58 16 -58 30 0 8 12 21 28 29 39 21 41 20 10 -8z m-88 6 c-54 -8 -70 -17 -71 -39 0 -10 -3 -12 -5 -5 -3 7 0 21 6 32 9 17 20 21 63 20 l52 -2 -45 -6z"/>
 </g>
<g id="layer103" fill="#578f83" stroke="none">
 <path d="M215 398 c6 -14 2 -15 -32 -7 -48 11 -154 11 -171 1 -9 -6 2 -33 45 -108 55 -94 58 -97 64 -69 6 27 7 25 8 -13 1 -60 15 -82 51 -82 17 0 30 4 30 9 0 4 12 6 28 3 23 -5 20 -7 -25 -16 l-53 -11 30 -52 c17 -29 37 -53 45 -53 19 0 46 39 146 213 44 76 77 142 74 148 -4 5 -1 8 6 7 6 -2 14 3 17 11 3 11 0 12 -14 6 -11 -5 -62 -11 -115 -13 -91 -4 -98 -2 -118 20 -14 15 -20 17 -16 6z m103 -114 c46 -13 19 -19 -83 -19 -99 0 -114 3 -98 18 8 9 150 9 181 1z m0 -59 c-34 -30 -34 -31 -2 -39 15 -4 24 -9 22 -12 -10 -9 -58 16 -58 30 0 8 12 21 28 29 39 21 41 20 10 -8z m-73 8 c-64 -8 -76 -14 -87 -44 -6 -16 -12 -28 -15 -26 -2 3 3 21 11 41 15 35 16 36 68 35 30 -1 40 -4 23 -6z"/>
 </g>

</svg>