<!DOCTYPE svg PUBLIC "-//W3C//DTD SVG 20010904//EN" "http://www.w3.org/TR/2001/REC-SVG-20010904/DTD/svg10.dtd">
<svg version="1.0" xmlns="http://www.w3.org/2000/svg" width="512px" height="512px" viewBox="0 0 5120 5120" preserveAspectRatio="xMidYMid meet">
<g id="layer101" fill="#e42c2a" stroke="#e42c2a" stroke-width="10" fill-rule="evenodd">
<path d="M2530 3980 L2536 3975C2540 3972,2544 3970,2546 3970 L2550 3970L2550 3970 L2549 3977C2549 3981,2556 3998,2565 4015 C2573 4031,2601 4083,2627 4130 C2653 4178,2685 4230,2697 4247 C2709 4264,2720 4284,2720 4293 C2720 4301,2723 4309,2728 4311 C2732 4313,2767 4371,2804 4440 C2842 4508,2876 4567,2879 4570 C2883 4572,2900 4602,2919 4635 C2937 4668,2973 4729,2998 4772 C3024 4815,3057 4869,3071 4892 C3086 4915,3112 4959,3129 4988 C3147 5017,3159 5043,3157 5046 C3155 5048,2878 5048,2541 5047 L1930 5045 1982 4956 C2011 4908,2046 4847,2060 4821 C2075 4796,2113 4730,2145 4675 C2177 4620,2207 4573,2211 4571 C2216 4569,2220 4563,2220 4558 C2220 4553,2245 4505,2276 4451 C2307 4398,2367 4295,2409 4222 C2450 4149,2495 4070,2508 4047 C2520 4024,2530 3999,2530 3992 L2530 3980" />
</g>
<g id="layer102" fill="#3f7a91" stroke="#3f7a91" stroke-width="10" fill-rule="evenodd">
</g>
<g id="layer103" fill="#538c80" stroke="#538c80" stroke-width="10" fill-rule="evenodd">
<path d="M2550 3970 L2546 3970C2544 3970,2540 3972,2536 3975 L2530 3980L2530 3980 L2497 3978C2479 3977,2393 3991,2305 4009 C2217 4027,2138 4044,2130 4047 C2121 4050,2108 4054,2100 4055 C2091 4057,2056 4066,2021 4074 C1986 4083,1853 4108,1726 4129 C1599 4151,1463 4171,1425 4175 C1386 4179,1350 4185,1345 4188 C1339 4191,1328 4195,1320 4196 C1311 4198,1255 4203,1195 4209 C1134 4215,1019 4219,940 4219 C860 4219,745 4215,685 4209 C624 4204,566 4195,555 4190 C544 4185,490 4173,435 4164 C380 4155,284 4132,221 4113 C158 4095,101 4075,93 4069 C82 4060,84 4052,103 4026 C116 4009,152 3950,184 3895 C215 3840,245 3788,250 3780 C255 3771,273 3740,292 3710 C310 3680,340 3627,360 3593 C379 3558,403 3520,412 3509 C422 3498,429 3487,430 3483 C430 3480,448 3445,470 3406 C492 3367,518 3323,528 3308 C537 3294,558 3260,573 3233 C589 3206,612 3169,624 3150 C635 3130,650 3106,657 3095 C664 3084,683 3050,700 3020 C716 2989,741 2947,755 2925 C768 2903,794 2858,811 2825 C828 2792,852 2751,863 2735 C875 2718,893 2689,903 2670 C914 2650,930 2621,939 2605 C948 2588,968 2554,984 2530 C1000 2505,1033 2448,1057 2403 C1081 2358,1107 2316,1115 2309 C1123 2303,1130 2292,1130 2285 C1130 2278,1141 2263,1155 2251 C1168 2239,1180 2221,1180 2210 C1179 2199,1188 2185,1199 2180 C1216 2171,1220 2173,1224 2192 C1227 2204,1233 2280,1239 2360 C1245 2439,1254 2541,1259 2585 C1265 2629,1274 2713,1279 2772 C1287 2851,1296 2896,1315 2937 C1329 2969,1360 3014,1383 3038 C1406 3062,1442 3090,1462 3101 C1483 3111,1504 3118,1509 3115 C1514 3112,1521 3113,1524 3119 C1527 3124,1538 3128,1547 3128 C1557 3128,1925 3128,2365 3128 C2805 3128,3183 3126,3205 3124 C3227 3122,3265 3118,3290 3115 C3314 3112,3348 3107,3365 3104 C3381 3102,3404 3098,3415 3096 C3426 3094,3435 3091,3435 3090 C3435 3089,3442 3086,3452 3084 C3462 3081,3475 3078,3482 3076 C3489 3074,3508 3067,3525 3061 C3541 3054,3566 3044,3579 3037 C3593 3030,3620 3008,3641 2987 C3661 2966,3680 2937,3684 2922 C3688 2907,3699 2886,3708 2876 C3721 2861,3725 2837,3725 2756 C3725 2667,3721 2647,3698 2599 C3684 2568,3664 2532,3653 2520 C3643 2507,3624 2487,3612 2476 C3600 2465,3590 2451,3590 2444 C3590 2438,3556 2407,3515 2376 C3475 2344,3439 2312,3436 2304 C3433 2296,3425 2289,3420 2289 C3414 2289,3368 2261,3317 2226 C3266 2192,3216 2160,3206 2156 C3196 2153,3190 2144,3192 2138 C3194 2131,3245 2108,3305 2087 C3365 2066,3421 2046,3430 2043 C3438 2039,3448 2035,3452 2034 C3456 2033,3462 2031,3465 2030 C3467 2028,3473 2026,3477 2025 C3481 2024,3491 2020,3500 2016 C3508 2013,3535 2003,3560 1994 C3584 1985,3640 1967,3684 1954 C3744 1936,3766 1933,3772 1943 C3777 1949,3799 1986,3822 2025 C3844 2063,3880 2123,3902 2158 C3923 2193,3950 2242,3961 2268 C3972 2293,3984 2316,3988 2319 C3991 2322,4009 2348,4027 2378 C4045 2407,4060 2434,4060 2438 C4060 2442,4070 2461,4083 2480 C4096 2499,4121 2549,4139 2592 C4157 2635,4174 2670,4178 2670 C4182 2670,4196 2693,4210 2721 C4223 2749,4243 2777,4253 2783 C4263 2789,4277 2808,4285 2825 C4293 2841,4310 2871,4322 2890 C4334 2910,4377 2980,4416 3046 C4456 3112,4498 3186,4511 3210 C4523 3234,4540 3261,4547 3268 C4554 3275,4570 3300,4582 3322 C4595 3344,4616 3381,4630 3405 C4643 3429,4676 3484,4702 3527 C4729 3569,4756 3614,4762 3625 C4769 3636,4788 3667,4806 3695 C4823 3723,4850 3770,4865 3800 C4879 3830,4900 3864,4909 3875 C4919 3886,4942 3924,4960 3960 C4979 3995,4996 4027,4999 4030 C5002 4032,5006 4041,5007 4048 C5009 4056,5005 4060,4997 4056 C4990 4053,4951 4037,4910 4019 C4868 4002,4790 3975,4735 3958 C4680 3941,4586 3915,4527 3899 C4468 3884,4369 3864,4307 3855 C4245 3847,4151 3835,4097 3830 C4044 3824,3889 3820,3752 3820 C3616 3820,3429 3826,3336 3834 C3243 3843,3104 3859,3026 3870 C2948 3881,2847 3897,2800 3906 C2754 3914,2709 3925,2700 3930 C2692 3934,2655 3943,2620 3950 C2584 3956,2553 3963,2552 3965 L2550 3970" />
<path d="M1597 2817 C1507 2767,1500 2751,1488 2553 C1483 2460,1474 2362,1469 2335 C1464 2307,1455 2188,1449 2070 C1443 1951,1434 1834,1430 1810 C1422 1769,1425 1759,1452 1710 C1469 1679,1508 1607,1540 1550 C1585 1466,1604 1440,1634 1423 C1687 1393,1781 1377,1859 1384 C1999 1396,2075 1402,2097 1401 C2122 1400,2129 1419,2105 1421 C2081 1423,2078 1424,2015 1455 C1982 1471,1951 1490,1946 1497 C1942 1504,1934 1507,1928 1504 C1923 1500,1912 1506,1904 1516 C1896 1526,1890 1531,1890 1526 C1890 1521,1876 1528,1860 1541 C1844 1554,1810 1580,1785 1599 C1760 1619,1739 1637,1740 1641 C1740 1645,1722 1666,1700 1688 C1678 1710,1663 1730,1667 1733 C1670 1737,1668 1740,1662 1740 C1645 1740,1612 1803,1578 1903 C1549 1987,1546 2005,1546 2120 C1547 2229,1550 2253,1573 2313 C1587 2351,1606 2390,1614 2399 C1623 2408,1630 2421,1630 2428 C1630 2434,1634 2440,1640 2440 C1645 2440,1650 2445,1650 2452 C1651 2465,1772 2563,1815 2586 C1829 2593,1882 2613,1933 2630 L2025 2660 2316 2660 C2599 2659,2610 2658,2681 2634 C2721 2621,2761 2606,2770 2603 C2778 2599,2793 2595,2803 2593 C2840 2586,2925 2545,2942 2526 C2952 2515,2960 2494,2960 2478 C2960 2462,2963 2450,2967 2450 C2972 2450,3014 2470,3062 2495 C3151 2541,3190 2550,3190 2526 C3190 2518,3195 2507,3203 2501 C3213 2493,3229 2499,3269 2525 C3298 2544,3323 2560,3325 2560 C3332 2560,3425 2624,3432 2634 C3436 2640,3442 2645,3447 2645 C3460 2645,3510 2687,3510 2698 C3510 2704,3517 2713,3526 2718 C3565 2739,3488 2779,3360 2804 C3250 2825,1633 2837,1597 2817 " />
<path d="M2348 2395 C2214 2379,2128 2363,2090 2347 C2076 2341,2062 2336,2060 2335 C2037 2331,1949 2293,1928 2278 C1913 2268,1898 2259,1893 2259 C1888 2259,1871 2246,1855 2231 C1769 2153,1739 2072,1759 1975 C1772 1916,1809 1839,1844 1803 C1915 1727,1938 1706,1970 1689 C1989 1678,2023 1658,2045 1645 C2107 1605,2179 1573,2245 1555 C2278 1546,2311 1536,2320 1533 C2328 1529,2341 1525,2350 1524 C2358 1522,2378 1518,2395 1515 C2465 1500,2500 1496,2668 1484 C2768 1477,2771 1476,2794 1446 C2837 1388,2871 1305,2877 1248 L2882 1192 2728 1186 C2570 1179,2545 1177,2520 1167 C2504 1162,2281 1131,2050 1103 C1981 1095,1896 1090,1862 1091 C1801 1094,1786 1089,1813 1072 C1821 1068,1836 1043,1848 1017 C1859 991,1873 970,1878 970 C1883 970,1892 956,1898 940 C1904 923,1913 910,1918 910 C1924 910,1931 895,1935 877 C1939 860,1954 828,1968 806 C2010 744,2049 673,2176 430 C2335 124,2491 3,2620 85 C2700 135,2799 250,2895 404 C2911 430,2929 457,2935 464 C2946 477,2963 506,2992 563 C3004 586,3016 607,3020 610 C3025 614,3126 794,3162 865 C3170 881,3206 946,3240 1010 C3274 1073,3318 1155,3338 1193 C3358 1231,3385 1273,3397 1287 C3409 1301,3454 1375,3497 1451 C3609 1654,3629 1694,3622 1700 C3618 1703,3548 1728,3467 1754 C3386 1781,3320 1807,3320 1813 C3320 1818,3316 1820,3313 1816 C3309 1812,3296 1816,3283 1824 C3271 1833,3228 1853,3187 1869 C3090 1908,3060 1923,3060 1932 C3060 1936,3054 1940,3047 1940 C3026 1940,2970 1999,2963 2027 C2960 2042,2948 2074,2938 2097 C2915 2150,2901 2322,2917 2367 C2928 2397,2928 2397,2884 2403 C2802 2415,2470 2410,2348 2395 M2269 2089 C2203 2055,2159 2001,2160 1952 C2160 1937,2177 1897,2199 1863 C2259 1768,2318 1749,2414 1794 C2508 1838,2568 1917,2541 1961 C2535 1971,2530 1984,2530 1990 C2530 2010,2488 2060,2448 2090 C2396 2129,2348 2129,2269 2089 " />
</g>
<g id="layer104" fill="#956f62" stroke="#956f62" stroke-width="10" fill-rule="evenodd">
</g>
<g id="layer105" fill="#868277" stroke="#868277" stroke-width="10" fill-rule="evenodd">
</g>

</svg>