<!DOCTYPE svg PUBLIC "-//W3C//DTD SVG 20010904//EN" "http://www.w3.org/TR/2001/REC-SVG-20010904/DTD/svg10.dtd">
<svg version="1.0" xmlns="http://www.w3.org/2000/svg" width="64px" height="64px" viewBox="0 0 640 640" preserveAspectRatio="xMidYMid meet">
<g id="layer101" fill="#e5312b" stroke="none">
<path d="M256 593 c15 -27 34 -58 42 -71 14 -22 14 -22 -12 -13 -65 25 -260 30 -282 8 -3 -2 27 -57 66 -122 38 -65 70 -122 70 -127 0 -4 4 -8 9 -8 5 0 13 25 16 55 10 74 20 79 157 73 125 -5 151 -17 130 -63 -6 -14 -23 -30 -37 -37 -14 -6 -25 -14 -25 -18 0 -7 82 -43 85 -37 98 166 155 268 155 275 0 5 -17 4 -37 -4 -40 -14 -214 -18 -245 -6 -16 6 -14 13 17 65 19 32 35 62 35 68 0 5 -38 9 -86 9 l-86 0 28 -47z"/>
</g>
<g id="layer102" fill="#568e82" stroke="none">
<path d="M57 529 c-27 -4 -51 -10 -53 -12 -3 -2 27 -57 66 -122 38 -65 70 -122 70 -127 0 -4 4 -8 9 -8 5 0 13 25 16 55 10 74 20 79 157 73 125 -5 151 -17 130 -63 -6 -14 -23 -30 -37 -37 -14 -6 -25 -14 -25 -18 0 -7 82 -43 85 -37 98 166 155 268 155 275 0 5 -17 4 -37 -4 -64 -22 -301 -15 -286 9 3 5 1 7 -5 3 -6 -3 -32 -2 -59 3 -79 16 -135 19 -186 10z"/>
<path d="M187 353 c-2 -5 -7 -37 -11 -71 -9 -84 7 -112 65 -112 22 0 38 4 34 9 -5 9 64 4 74 -5 11 -10 -15 -18 -69 -22 -33 -2 -60 -6 -60 -9 0 -8 43 -89 62 -115 28 -40 49 -35 84 20 34 51 94 156 94 165 0 2 -18 12 -39 21 -39 15 -59 45 -46 67 4 6 12 8 19 6 17 -7 60 28 52 42 -8 12 -252 16 -259 4z m153 -32 c20 -6 12 -9 -33 -13 -42 -3 -64 -11 -80 -27 -21 -21 -22 -22 -4 -54 l17 -32 -20 24 c-20 24 -26 57 -12 78 17 27 80 39 132 24z m-30 -82 c0 -5 -7 -9 -15 -9 -15 0 -20 12 -9 23 8 8 24 -1 24 -14z"/>
</g>


</svg>