<svg id="Layer_1" data-name="Layer 1" xmlns="http://www.w3.org/2000/svg" viewBox="0 0 25 25"><title>Anchor</title><path id="Anchor" d="M25,18.14l-1.78-6a.5.5,0,0,0-.81-.23l-4.76,4.17a.5.5,0,0,0,.26.87l1.08.15c-.58,1-1.37,1.85-2.1,1.85h-.19C15.55,19,15,18.41,15,17.2V13h1.41A1.55,1.55,0,0,0,18,11.76a1.48,1.48,0,0,0-.33-1.22A1.56,1.56,0,0,0,16.47,10H15V8.22a4.5,4.5,0,1,0-5,0V10H8.61A1.55,1.55,0,0,0,7,11.24a1.48,1.48,0,0,0,.33,1.22A1.56,1.56,0,0,0,8.55,13H10v4.2c0,1.21-.55,1.8-1.67,1.8H8.14c-.62,0-1.34-.58-1.94-1.56L6,17.2l1.12-.27a.5.5,0,0,0,.21-.86L2.61,11.93a.5.5,0,0,0-.81.23L0,18.13a.5.5,0,0,0,.61.63l1.46-.39c.07.2.14.39.22.58a6.66,6.66,0,0,0,6,4.49,6.31,6.31,0,0,1,3.84,1.44.5.5,0,0,0,.67,0,6.26,6.26,0,0,1,3.84-1.44c2.07,0,4.89-1.34,6.23-5.07l1.46.4a.51.51,0,0,0,.49-.13A.5.5,0,0,0,25,18.14ZM14,4.5A1.5,1.5,0,1,1,12.5,3,1.5,1.5,0,0,1,14,4.5Z" fill="#0e1d25"/></svg>