<svg id="Layer_1" data-name="Layer 1" xmlns="http://www.w3.org/2000/svg" viewBox="0 0 25 25"><title>Anchor</title><path id="Anchor" d="M12.5,25a.5.5,0,0,1-.34-.13,6.31,6.31,0,0,0-3.84-1.44,6.66,6.66,0,0,1-6-4.49c-.08-.19-.15-.38-.22-.58l-1.46.39A.5.5,0,0,1,0,18.13l1.78-6a.5.5,0,0,1,.81-.23l4.76,4.14a.5.5,0,0,1-.21.86L6,17.2l.16.25c.6,1,1.32,1.56,1.94,1.56h.19C9.45,19,10,18.41,10,17.2V13H8.55a1.56,1.56,0,0,1-1.19-.54A1.48,1.48,0,0,1,7,11.24,1.55,1.55,0,0,1,8.61,10H10V8.22a4.5,4.5,0,1,1,5,0V10h1.47a1.56,1.56,0,0,1,1.19.54A1.48,1.48,0,0,1,18,11.76,1.55,1.55,0,0,1,16.41,13H15v4.2c0,1.21.55,1.8,1.67,1.8h.19c.73,0,1.52-.9,2.1-1.85L17.88,17a.5.5,0,0,1-.26-.87L22.39,12a.5.5,0,0,1,.81.23l1.78,6a.5.5,0,0,1-.12.49.51.51,0,0,1-.49.13l-1.46-.4c-1.34,3.73-4.16,5.07-6.23,5.07a6.26,6.26,0,0,0-3.84,1.44A.5.5,0,0,1,12.5,25ZM2.42,17.25a.5.5,0,0,1,.48.35,10,10,0,0,0,.34.95c1.19,2.86,3.41,3.88,5.09,3.88a7.2,7.2,0,0,1,4.17,1.43,7.2,7.2,0,0,1,4.17-1.43c2,0,4.39-1.49,5.43-4.82a.5.5,0,0,1,.61-.33l1,.29-1.3-4.34-3.35,2.94.71.1a.5.5,0,0,1,.38.72c-.46.91-1.7,3-3.34,3h-.19A2.52,2.52,0,0,1,14,17.2V12.5a.5.5,0,0,1,.5-.5h1.91a.56.56,0,0,0,.59-.41.49.49,0,0,0-.11-.41.56.56,0,0,0-.43-.19h-2a.5.5,0,0,1-.5-.5V7.94a.5.5,0,0,1,.25-.43A3.46,3.46,0,0,0,16,4.5a3.5,3.5,0,0,0-7,0,3.46,3.46,0,0,0,1.75,3,.5.5,0,0,1,.25.43V10.5a.5.5,0,0,1-.5.5H8.61a.56.56,0,0,0-.59.41.49.49,0,0,0,.11.41.56.56,0,0,0,.43.19H10.5a.5.5,0,0,1,.5.5v4.7A2.52,2.52,0,0,1,8.33,20H8.14a3.6,3.6,0,0,1-2.79-2l-.22-.33a4.4,4.4,0,0,1-.33-.54.5.5,0,0,1,.33-.71l.85-.2-3.44-3-1.3,4.37,1.05-.28ZM12.5,7A2.5,2.5,0,1,1,15,4.5,2.5,2.5,0,0,1,12.5,7Zm0-4A1.5,1.5,0,1,0,14,4.5,1.5,1.5,0,0,0,12.5,3Z" fill="#0e1d25"/></svg>