<svg id="Layer_1" data-name="Layer 1" xmlns="http://www.w3.org/2000/svg" viewBox="0 0 25 25"><title>Apple</title><path id="Apple" d="M19.95,7.15a7.17,7.17,0,0,0-7,.32,11.15,11.15,0,0,0-.17-1.7,4.14,4.14,0,0,0,.63.05,4.34,4.34,0,0,0,3.06-1.31c1.2-1.18,1.2-3,1.2-4a.5.5,0,0,0-.5-.5c-1.51,0-2.81,0-4,1.19A4.37,4.37,0,0,0,12,3.34,4.93,4.93,0,0,0,9.51,1.07L9.2,2c.11,0,2.66,1,2.79,5.43a7.16,7.16,0,0,0-6.94-.3C2.51,8.51,1,11.44,1,15c0,5.23,3.23,10,6.79,10a5.55,5.55,0,0,0,2.56-.56,4.56,4.56,0,0,1,2.15-.48,4.56,4.56,0,0,1,2.15.48,5.55,5.55,0,0,0,2.56.56C20.77,25,24,20.23,24,15,24,11.44,22.49,8.51,19.95,7.15ZM8.13,10.51c-1.76,0-3,1.85-3,4.5h-1c0-3.24,1.64-5.5,4-5.5Z" fill="#0e1d25"/></svg>