<svg id="Layer_1" data-name="Layer 1" xmlns="http://www.w3.org/2000/svg" viewBox="0 0 25 25"><title>Apple</title><path id="Apple" d="M19.82,7.15a7.17,7.17,0,0,0-7,.32,11.15,11.15,0,0,0-.17-1.7,4.14,4.14,0,0,0,.63.05,4.34,4.34,0,0,0,3.06-1.31c1.2-1.18,1.2-3,1.2-4a.5.5,0,0,0-.5-.5c-1.51,0-2.81,0-4,1.19a4.37,4.37,0,0,0-1.22,2.15A4.93,4.93,0,0,0,9.39,1.07L9.07,2c.11,0,2.66,1,2.79,5.43a7.16,7.16,0,0,0-6.94-.3C2.39,8.51.87,11.44.87,15c0,5.23,3.23,10,6.79,10a5.55,5.55,0,0,0,2.56-.56,4.56,4.56,0,0,1,2.15-.48,4.56,4.56,0,0,1,2.15.48,5.55,5.55,0,0,0,2.56.56c3.55,0,6.79-4.76,6.79-10C23.87,11.44,22.36,8.51,19.82,7.15Zm-6-5.25A3.52,3.52,0,0,1,16.58,1a4,4,0,0,1-.89,2.79,3.25,3.25,0,0,1-2.9,1A3.2,3.2,0,0,1,13.77,1.9ZM17.08,24a4.56,4.56,0,0,1-2.15-.48,5.54,5.54,0,0,0-2.56-.56,5.54,5.54,0,0,0-2.56.56A4.56,4.56,0,0,1,7.66,24C5,24,1.87,20.07,1.87,15c0-3.19,1.32-5.79,3.52-7,2-1.06,4.42-.8,6.7.71a.5.5,0,0,0,.55,0C14.93,7.23,17.37,7,19.35,8c2.21,1.18,3.52,3.79,3.52,7C22.87,20.07,19.76,24,17.08,24ZM8,9.51v1c-1.76,0-3,1.85-3,4.5H4C4,11.77,5.65,9.51,8,9.51Z" fill="#0e1d25"/></svg>