<svg id="Layer_1" data-name="Layer 1" xmlns="http://www.w3.org/2000/svg" viewBox="0 0 25 25"><title>Apple Watch</title><path id="Apple_Watch" data-name="Apple Watch" d="M18,22H7a4,4,0,0,1-.86-.1.09.09,0,0,0,0,.05C6.45,24,7.07,25,8,25h9c.93,0,1.55-1,1.85-3.1A4,4,0,0,1,18,22ZM21,8V7a3,3,0,0,0-3-3H7A3,3,0,0,0,4.34,5.62,2.88,2.88,0,0,0,4,7V18a3,3,0,0,0,3,3H18a3,3,0,0,0,3-3V12a2,2,0,0,0,0-4Zm-8,4.21V16H12V12.33L8.8,10.95,9.2,10l3.19,1.38L15.6,8.19l.71.71ZM21,11V9a1,1,0,0,1,0,2ZM17,0H8C7.07,0,6.32,1,6,3.08v0A3.92,3.92,0,0,1,7,3H18a3.86,3.86,0,0,1,.84.1C18.53,1.07,17.92,0,17,0Z" fill="#0e1d25"/></svg>