<svg id="Layer_1" data-name="Layer 1" xmlns="http://www.w3.org/2000/svg" viewBox="0 0 25 25"><title>Apple Watch</title><path id="Apple_Watch" data-name="Apple Watch" d="M16,25H7c-.93,0-1.55-1-1.85-3.11-.06-.42-.1-.8-.12-1.05A3,3,0,0,1,3,18V7A3,3,0,0,1,5,4.16c0-.25.06-.63.12-1.05C5.45,1,6.07,0,7,0h9c.93,0,1.55,1,1.85,3.11.06.43.1.8.12,1.05A3,3,0,0,1,20,7V8a2,2,0,0,1,0,4v6a3,3,0,0,1-2,2.84c0,.25-.06.63-.12,1.05C17.55,24,16.93,25,16,25ZM6,21c0,.21.05.46.09.74C6.38,23.39,6.79,24,7,24h9c.21,0,.63-.61.87-2.26,0-.28.07-.54.09-.74ZM6,5A2,2,0,0,0,4,7V18a2,2,0,0,0,2,2H17a2,2,0,0,0,2-2V7a2,2,0,0,0-2-2ZM20,9v2a1,1,0,0,0,0-2ZM6,4H17c0-.21-.05-.46-.09-.74C16.63,1.61,16.21,1,16,1H7c-.21,0-.62.61-.87,2.26C6.09,3.53,6.06,3.79,6,4Zm6,12H11V12.33L7.8,10.95,8.2,10l3.19,1.38L14.6,8.19l.71.71L12,12.21Z" fill="#0e1d25"/></svg>