<svg id="Layer_1" data-name="Layer 1" xmlns="http://www.w3.org/2000/svg" viewBox="0 0 25 25"><title>Attachment</title><path id="Attachment_2" data-name="Attachment 2" d="M7.23,25a7.34,7.34,0,0,1-5-2l-.1-.09a6.47,6.47,0,0,1,0-9.54L15.49,1.34a5.14,5.14,0,0,1,6.93,0,4.56,4.56,0,0,1,1.52,3.36A4.5,4.5,0,0,1,22.48,8L9.91,19.31a2.82,2.82,0,0,1-3.8,0,2.52,2.52,0,0,1-.84-1.86,2.5,2.5,0,0,1,.81-1.83L17.82,5.08l.67.75L6.75,16.34a1.49,1.49,0,0,0,0,2.2,1.82,1.82,0,0,0,2.47,0L21.8,7.28a3.48,3.48,0,0,0,0-5.14,4.15,4.15,0,0,0-5.63-.06L2.78,14.15a5.47,5.47,0,0,0,0,8.08l.1.09a6.44,6.44,0,0,0,8.69,0L24.14,11l.67.74L12.25,23A7.31,7.31,0,0,1,7.23,25Z" fill="#0e1d25"/></svg>