<svg id="Layer_1" data-name="Layer 1" xmlns="http://www.w3.org/2000/svg" viewBox="0 0 25 25"><title>Backpack</title><path id="Backpack" d="M0,16.5v5.25A1.25,1.25,0,0,0,1.25,23H3V13A3.29,3.29,0,0,0,0,16.5ZM22,13V23h1.75A1.25,1.25,0,0,0,25,21.75V16.5A3.29,3.29,0,0,0,22,13ZM8,19v6h9V19Zm8.75-3H8.25a.25.25,0,0,0-.25.25V18h9V16.25A.25.25,0,0,0,16.75,16ZM16,4.18v-.6a3.5,3.5,0,1,0-7,0v.6A6.51,6.51,0,0,0,4,10.5V23.75A1.25,1.25,0,0,0,5.25,25H7V16.25A1.25,1.25,0,0,1,8.25,15h8.5A1.25,1.25,0,0,1,18,16.25V25h1.75A1.25,1.25,0,0,0,21,23.75V10.5A6.51,6.51,0,0,0,16,4.18Zm-6-.6a2.5,2.5,0,1,1,5,0V4H10Zm6,7.17A1.25,1.25,0,0,1,14.75,12h-4.5A1.25,1.25,0,0,1,9,10.75V9.25A1.25,1.25,0,0,1,10.25,8h4.5A1.25,1.25,0,0,1,16,9.25ZM14.75,9h-4.5a.25.25,0,0,0-.25.25v1.5a.25.25,0,0,0,.25.25h4.5a.25.25,0,0,0,.25-.25V9.25A.25.25,0,0,0,14.75,9Z" fill="#0e1d25"/></svg>