<svg id="Layer_1" data-name="Layer 1" xmlns="http://www.w3.org/2000/svg" viewBox="0 0 25 25"><title>Backpack</title><path d="M14.75,8h-4.5A1.25,1.25,0,0,0,9,9.25v1.5A1.25,1.25,0,0,0,10.25,12h4.5A1.25,1.25,0,0,0,16,10.75V9.25A1.25,1.25,0,0,0,14.75,8ZM15,10.75a.25.25,0,0,1-.25.25h-4.5a.25.25,0,0,1-.25-.25V9.25A.25.25,0,0,1,10.25,9h4.5a.25.25,0,0,1,.25.25Z" fill="#0e1d25"/><path d="M22,13V10.5A6.51,6.51,0,0,0,16,4V3.58a3.5,3.5,0,1,0-7,0V4A6.51,6.51,0,0,0,3,10.5V13a3.28,3.28,0,0,0-3,3.5v5.25A1.25,1.25,0,0,0,1.25,23H3v.75A1.25,1.25,0,0,0,4.25,25h16.5A1.25,1.25,0,0,0,22,23.75V23h1.75A1.25,1.25,0,0,0,25,21.75V16.5A3.28,3.28,0,0,0,22,13ZM3,22H1.25A.25.25,0,0,1,1,21.75V16.5A2.3,2.3,0,0,1,3,14ZM10,3.58a2.5,2.5,0,1,1,5,0V4H10ZM17,24H8V19h9Zm0-6H8V16.25A.25.25,0,0,1,8.25,16h8.5a.25.25,0,0,1,.25.25Zm4,5.74a.25.25,0,0,1-.25.25H18V16.25A1.24,1.24,0,0,0,16.75,15H8.25A1.24,1.24,0,0,0,7,16.25V24H4.25A.25.25,0,0,1,4,23.75V10.5A5.51,5.51,0,0,1,9.5,5h6A5.51,5.51,0,0,1,21,10.5Zm3-2a.25.25,0,0,1-.25.25H22V14a2.3,2.3,0,0,1,2,2.5Z" fill="#0e1d25"/></svg>