<svg id="Layer_1" data-name="Layer 1" xmlns="http://www.w3.org/2000/svg" viewBox="0 0 25 25"><title>Binoculars</title><path id="Binoculars" d="M19.53,23A5.51,5.51,0,0,1,14,17.5c0-.17,0-.34,0-.5H11c0,.16,0,.33,0,.5A5.5,5.5,0,1,1,.49,15.29L3.87,4.57A3.46,3.46,0,0,1,7.33,2,3.68,3.68,0,0,1,11,5.68V7h3V5.68A3.69,3.69,0,0,1,17.69,2a3.49,3.49,0,0,1,3.5,2.59l3.7,11.6h0A5.5,5.5,0,0,1,19.53,23Zm0-10A4.5,4.5,0,1,0,24,17.5,4.5,4.5,0,0,0,19.53,13ZM1.11,16.68A4.58,4.58,0,0,0,1,17.5a4.5,4.5,0,0,0,9,0,4.69,4.69,0,0,0,0-.5v0a4.5,4.5,0,0,0-8.57-1.33ZM11,16h3V8H11ZM17.69,3A2.69,2.69,0,0,0,15,5.68v8.71a5.49,5.49,0,0,1,7.86-1.26L20.23,4.87A2.53,2.53,0,0,0,17.69,3ZM5.53,12A5.5,5.5,0,0,1,10,14.3V5.68A2.67,2.67,0,0,0,7.33,3,2.47,2.47,0,0,0,4.82,4.86L2.23,13.1A5.47,5.47,0,0,1,5.53,12Z" fill="#0e1d25"/></svg>