<svg id="Layer_1" data-name="Layer 1" xmlns="http://www.w3.org/2000/svg" viewBox="0 0 25 25"><title>Bomb Threat</title><path id="Bomb_Threat" data-name="Bomb Threat" d="M12.5,25A8.5,8.5,0,0,1,9,8.75V5.25A1.25,1.25,0,0,1,10.25,4h4.5A1.25,1.25,0,0,1,16,5.25v3.5A8.5,8.5,0,0,1,12.5,25Zm0-16A7.5,7.5,0,1,0,20,16.5,7.51,7.51,0,0,0,12.5,9Zm0-1a8.46,8.46,0,0,1,2.5.38V5.25A.25.25,0,0,0,14.75,5h-4.5a.25.25,0,0,0-.25.25V8.38A8.46,8.46,0,0,1,12.5,8Zm2.65,11.85L12.5,17.21,9.85,19.85l-.71-.71,2.65-2.65L9.15,13.85l.71-.71,2.65,2.65,2.65-2.65.71.71L13.21,16.5l2.65,2.65ZM13,4H12a3.79,3.79,0,0,1,3.52-4,5.81,5.81,0,0,1,2.7.85c1.26.65,2.09,1.08,3.43-.21l.69.72c-1.85,1.78-3.3,1-4.58.37A5,5,0,0,0,15.52,1,2.8,2.8,0,0,0,13,4Z" fill="#0e1d25"/></svg>