<svg id="Layer_1" data-name="Layer 1" xmlns="http://www.w3.org/2000/svg" viewBox="0 0 25 25"><title>Book Bookmark</title><path id="Book_Bookmark" data-name="Book Bookmark" d="M21.75,0H4A2,2,0,0,0,2,2V22.7s0,.07,0,.11A2,2,0,0,0,4,25H20.75A1.25,1.25,0,0,0,22,23.75V22h-.25A1.25,1.25,0,0,0,23,20.75V1.25A1.25,1.25,0,0,0,21.75,0ZM17,1V9.5l-1.2-.9a.5.5,0,0,0-.6,0L14,9.5V1ZM3,2A1,1,0,0,1,4,1H6V21H4a2.1,2.1,0,0,0-1,.28ZM21,23.75a.25.25,0,0,1-.25.25H4a1,1,0,0,1-1-1l0-.21A1.06,1.06,0,0,1,4,22H21Zm1-3a.25.25,0,0,1-.25.25H7V1h6v9.5a.5.5,0,0,0,.8.4l1.7-1.27,1.7,1.27a.5.5,0,0,0,.3.1.5.5,0,0,0,.5-.5V1h3.75a.25.25,0,0,1,.25.25Z" fill="#0e1d25"/></svg>