<svg id="Layer_1" data-name="Layer 1" xmlns="http://www.w3.org/2000/svg" viewBox="0 0 25 25"><title>Briefcase</title><path id="Briefcase" d="M23.75,5H17V3.25A1.25,1.25,0,0,0,15.75,2H9.25A1.25,1.25,0,0,0,8,3.25V5H1.25A1.25,1.25,0,0,0,0,6.25v5.5A1.25,1.25,0,0,0,1,13v9.78A1.25,1.25,0,0,0,2.25,24h20.5A1.25,1.25,0,0,0,24,22.75V13a1.25,1.25,0,0,0,1-1.22V6.25A1.25,1.25,0,0,0,23.75,5ZM9,3.25A.25.25,0,0,1,9.25,3h6.5a.25.25,0,0,1,.25.25V5H9Zm14,19.5a.25.25,0,0,1-.25.25H2.25A.25.25,0,0,1,2,22.75V13H4v1.5a.5.5,0,0,0,.5.5h3a.5.5,0,0,0,.5-.5V13h9v1.5a.5.5,0,0,0,.5.5h3a.5.5,0,0,0,.5-.5V13h2ZM5,14V11H7v3Zm13,0V11h2v3Zm6-2.25a.25.25,0,0,1-.25.25H21V10.5a.5.5,0,0,0-.5-.5h-3a.5.5,0,0,0-.5.5V12H8V10.5a.5.5,0,0,0-.5-.5h-3a.5.5,0,0,0-.5.5V12H1.25A.25.25,0,0,1,1,11.75V6.25A.25.25,0,0,1,1.25,6h22.5a.25.25,0,0,1,.25.25Z" fill="#0e1d25"/></svg>