<svg id="Layer_1" data-name="Layer 1" xmlns="http://www.w3.org/2000/svg" viewBox="0 0 25 25"><title>Briefcase</title><path id="Briefcase" d="M23.75,4H17V2.25A1.25,1.25,0,0,0,15.75,1H9.25A1.25,1.25,0,0,0,8,2.25V4H1.25A1.25,1.25,0,0,0,0,5.25v5.5A1.25,1.25,0,0,0,1.25,12H4V10.5a.5.5,0,0,1,.5-.5h2a.5.5,0,0,1,.5.5V12H17V10.5a.5.5,0,0,1,.5-.5h2a.5.5,0,0,1,.5.5V12h3.75A1.25,1.25,0,0,0,25,10.75V5.25A1.25,1.25,0,0,0,23.75,4ZM16,4H9V2.25A.25.25,0,0,1,9.25,2h6.5a.25.25,0,0,1,.25.25Zm7.75,9H20v1.5a.5.5,0,0,1-.5.5h-2a.5.5,0,0,1-.5-.5V13H7v1.5a.5.5,0,0,1-.5.5h-2a.5.5,0,0,1-.5-.5V13H1.25A1.9,1.9,0,0,1,1,13v8.78A1.25,1.25,0,0,0,2.25,23h20.5A1.25,1.25,0,0,0,24,21.75V13A1.9,1.9,0,0,1,23.75,13Z" fill="#0e1d25"/></svg>