<svg id="Layer_1" data-name="Layer 1" xmlns="http://www.w3.org/2000/svg" viewBox="0 0 25 25"><title>Broadcast</title><path id="Broadcast" d="M5.66,12.86A9,9,0,0,1,5.66.14l.71.71a8,8,0,0,0,0,11.3ZM8,10.76,8.65,10A4.78,4.78,0,0,1,7.06,6.5,4.78,4.78,0,0,1,8.65,3L8,2.24a5.71,5.71,0,0,0,0,8.51Zm10.68,1.39.71.71a9,9,0,0,0,0-12.72l-.71.71a8,8,0,0,1,0,11.3ZM17,10.76a5.71,5.71,0,0,0,0-8.51L16.37,3A4.78,4.78,0,0,1,18,6.5,4.78,4.78,0,0,1,16.37,10Zm-2.7-1A3.71,3.71,0,0,0,16,6.64,3.55,3.55,0,0,0,12.5,3.06,3.5,3.5,0,0,0,9,6.54a4,4,0,0,0,1.67,3.21,71.85,71.85,0,0,1-6.59,14.5A.5.5,0,0,0,4.5,25h5a.5.5,0,0,0,.49-.41c0-.11.49-2.6,2.52-2.6S15,24.48,15,24.59a.5.5,0,0,0,.49.41h5a.5.5,0,0,0,.43-.75A71.82,71.82,0,0,1,14.34,9.74Z" fill="#0e1d25"/></svg>