<svg id="Layer_1" data-name="Layer 1" xmlns="http://www.w3.org/2000/svg" viewBox="0 0 25 25"><title>Broadcast</title><path id="Broadcast" d="M20.5,25h-5a.5.5,0,0,1-.49-.41c0-.11-.49-2.6-2.52-2.6S10,24.48,10,24.59a.5.5,0,0,1-.49.41h-5a.5.5,0,0,1-.43-.75,71.85,71.85,0,0,0,6.59-14.5A4,4,0,0,1,9,6.54,3.5,3.5,0,0,1,12.5,3.06,3.55,3.55,0,0,1,16,6.64a3.71,3.71,0,0,1-1.67,3.1,71.8,71.8,0,0,0,6.59,14.51.5.5,0,0,1-.43.75Zm-4.59-1h3.73c-3.66-6.53-6-12.41-6.36-14.41A.5.5,0,0,1,13.56,9,2.69,2.69,0,0,0,15,6.64,2.58,2.58,0,0,0,12.5,4.06,2.5,2.5,0,0,0,10,6.54,2.87,2.87,0,0,0,11.44,9a.5.5,0,0,1,.28.55c-.41,2-2.7,7.87-6.36,14.4H9.09c.34-1.23,1.36-3,3.41-3S15.57,22.77,15.91,24ZM5.66,12.86A9,9,0,0,1,5.66.14l.71.71a8,8,0,0,0,0,11.3Zm13.69,0-.71-.71a8,8,0,0,0,0-11.3l.71-.71a9,9,0,0,1,0,12.72ZM8,10.76A5.71,5.71,0,0,1,8,2.24L8.65,3A4.78,4.78,0,0,0,7.06,6.5,4.78,4.78,0,0,0,8.65,10Zm9.08,0L16.37,10A4.78,4.78,0,0,0,18,6.5,4.78,4.78,0,0,0,16.37,3L17,2.24a5.71,5.71,0,0,1,0,8.51Z" fill="#0e1d25"/></svg>