<svg id="Layer_1" data-name="Layer 1" xmlns="http://www.w3.org/2000/svg" viewBox="0 0 25 25"><title>Bug</title><path id="Bug" d="M12.5,25a7.49,7.49,0,0,1-7.41-6.52A7.68,7.68,0,0,0,.83,21.14L0,20.55a8.77,8.77,0,0,1,5-3.08q0-.12,0-.23V15H0V14H5V11.18A8.5,8.5,0,0,1,0,7.55L.83,7c2,2.71,4,3.19,4.55,3.27L5.66,10a13.66,13.66,0,0,1,2.49-1.4A4.5,4.5,0,0,1,10,3.75L7.63.74,8.41.11l2.54,3.17a4.62,4.62,0,0,1,3.09,0L16.57.11l.78.63-2.4,3a4.51,4.51,0,0,1,1.9,4.91,13.55,13.55,0,0,1,2.49,1.4l.27.18c.56-.08,2.58-.56,4.55-3.27l.81.59a8.5,8.5,0,0,1-5,3.63V14h5v1H20v2.24q0,.12,0,.23a8.77,8.77,0,0,1,5,3.08l-.81.59a7.68,7.68,0,0,0-4.26-2.66A7.49,7.49,0,0,1,12.5,25ZM12,13h1V24a6.58,6.58,0,0,0,6-6.74V11l-.21-.14A10.39,10.39,0,0,0,12.54,8.8a10.82,10.82,0,0,0-6.32,2.08L6,11v6.21A6.58,6.58,0,0,0,12,24Zm.5-9a3.5,3.5,0,0,0-3.41,4.3,11.39,11.39,0,0,1,3.41-.5h0a11.37,11.37,0,0,1,3.37.5A3.51,3.51,0,0,0,12.5,4Z" fill="#0e1d25"/></svg>