<svg id="Layer_1" data-name="Layer 1" xmlns="http://www.w3.org/2000/svg" viewBox="0 0 25 25"><title>Calendar</title><path id="Calendar" d="M22.75,2H20V1.25A1.25,1.25,0,0,0,18.75,0h-1.5A1.25,1.25,0,0,0,16,1.25V2H9V1.25A1.25,1.25,0,0,0,7.75,0H6.25A1.25,1.25,0,0,0,5,1.25V2H2.25A1.25,1.25,0,0,0,1,3.25V7H24V3.25A1.25,1.25,0,0,0,22.75,2ZM6,1.25A.25.25,0,0,1,6.25,1h1.5A.25.25,0,0,1,8,1.25v2.5A.25.25,0,0,1,7.75,4H6.25A.25.25,0,0,1,6,3.75V1.25Zm11,0A.25.25,0,0,1,17.25,1h1.5a.25.25,0,0,1,.25.25v2.5a.25.25,0,0,1-.25.25h-1.5A.25.25,0,0,1,17,3.75V1.25ZM1,8.5V23.75A1.25,1.25,0,0,0,2.25,25h20.5A1.25,1.25,0,0,0,24,23.75V8H1Z" fill="#0e1d25"/></svg>