<svg id="Layer_1" data-name="Layer 1" xmlns="http://www.w3.org/2000/svg" viewBox="0 0 25 25"><title>Calendar</title><path id="Calendar" d="M22.75,25H2.25A1.25,1.25,0,0,1,1,23.75V3.25A1.25,1.25,0,0,1,2.25,2H5V1.25A1.25,1.25,0,0,1,6.25,0h1.5A1.25,1.25,0,0,1,9,1.25v2.5A1.25,1.25,0,0,1,7.75,5H6.25A1.25,1.25,0,0,1,5,3.75V3H2.25A.25.25,0,0,0,2,3.25V7H23V8H2V23.75a.25.25,0,0,0,.25.25h20.5a.25.25,0,0,0,.25-.25V3.25A.25.25,0,0,0,22.75,3H20V2h2.75A1.25,1.25,0,0,1,24,3.25v20.5A1.25,1.25,0,0,1,22.75,25ZM6.25,1A.25.25,0,0,0,6,1.25v2.5A.25.25,0,0,0,6.25,4h1.5A.25.25,0,0,0,8,3.75V1.25A.25.25,0,0,0,7.75,1Zm12.5,4h-1.5A1.25,1.25,0,0,1,16,3.75V3H9V2h7V1.25A1.25,1.25,0,0,1,17.25,0h1.5A1.25,1.25,0,0,1,20,1.25v2.5A1.25,1.25,0,0,1,18.75,5ZM17,3v.75a.25.25,0,0,0,.25.25h1.5A.25.25,0,0,0,19,3.75V1.25A.25.25,0,0,0,18.75,1h-1.5a.25.25,0,0,0-.25.25Z" fill="#0e1d25"/></svg>