<svg id="Layer_1" data-name="Layer 1" xmlns="http://www.w3.org/2000/svg" viewBox="0 0 25 25"><title>Call</title><path id="Call" d="M24.33,17.58l-5.79-3.15a1.3,1.3,0,0,0-1.54.23l-2.83,2.88a.29.29,0,0,1-.37,0,27.16,27.16,0,0,1-3.48-2.77,29.66,29.66,0,0,1-2.89-3.6.29.29,0,0,1,0-.37L10.35,8a1.3,1.3,0,0,0,.23-1.54L7.42.67A1.29,1.29,0,0,0,5.82.09L1.33,1.83A2.08,2.08,0,0,0,0,4,24.44,24.44,0,0,0,6.27,17.85l.87.87h0A24.44,24.44,0,0,0,21,25h.24a2.08,2.08,0,0,0,1.93-1.33l1.74-4.49A1.3,1.3,0,0,0,24.33,17.58Z" fill="#0e1d25"/></svg>