<svg id="Layer_1" data-name="Layer 1" xmlns="http://www.w3.org/2000/svg" viewBox="0 0 25 25"><title>Camera</title><path id="Camera" d="M23.79,23H1.25A1.25,1.25,0,0,1,0,21.75V8.28A1.28,1.28,0,0,1,1.28,7h4a.74.74,0,0,0,.59-.37l.83-2.31A2,2,0,0,1,8.55,3h7.89a2,2,0,0,1,1.88,1.32l.84,2.33a.76.76,0,0,0,.58.35h4A1.25,1.25,0,0,1,25,8.25V21.79A1.21,1.21,0,0,1,23.79,23ZM1.28,8A.28.28,0,0,0,1,8.28V21.75a.25.25,0,0,0,.25.25H23.79a.21.21,0,0,0,.21-.21V8.25A.25.25,0,0,0,23.75,8h-4a1.73,1.73,0,0,1-1.51-1l-.85-2.36A1,1,0,0,0,16.45,4H8.55a1,1,0,0,0-.94.66L6.77,7A1.74,1.74,0,0,1,5.25,8ZM12.5,19A5.5,5.5,0,1,1,18,13.5,5.51,5.51,0,0,1,12.5,19Zm0-10A4.5,4.5,0,1,0,17,13.5,4.5,4.5,0,0,0,12.5,9Z" fill="#0e1d25"/></svg>