<svg id="Layer_1" data-name="Layer 1" xmlns="http://www.w3.org/2000/svg" viewBox="0 0 25 25"><title>Car</title><path id="Car" d="M25,11.71a3,3,0,0,0-2.12-2.52l-2-5.81A2,2,0,0,0,18.9,2H6.6A2,2,0,0,0,4.68,3.36l-2,5.69A3.06,3.06,0,0,0,0,11.71a.51.51,0,0,0,0,.15V17a2,2,0,0,0,1,1.72v2.77A1.51,1.51,0,0,0,2.51,23h3A1.5,1.5,0,0,0,7,21.49V19H18v2.5A1.5,1.5,0,0,0,19.5,23h3A1.5,1.5,0,0,0,24,21.5V18.72A2,2,0,0,0,25,17V11.86A.49.49,0,0,0,25,11.71ZM3.5,15A1.5,1.5,0,1,1,5,13.5,1.5,1.5,0,0,1,3.5,15ZM18,15H7V12H18ZM3.77,9,5.63,3.68A1,1,0,0,1,6.6,3H18.9a1,1,0,0,1,1,.69L21.73,9h-18ZM21.5,15A1.5,1.5,0,1,1,23,13.5,1.5,1.5,0,0,1,21.5,15Z" fill="#0e1d25"/></svg>