<svg id="Layer_1" data-name="Layer 1" xmlns="http://www.w3.org/2000/svg" viewBox="0 0 25 25"><title>CD</title><path id="CD" d="M12.5,25A12.5,12.5,0,1,1,25,12.5,12.51,12.51,0,0,1,12.5,25ZM6.79,22.48A11.5,11.5,0,0,0,22.48,6.79L17.35,9.91a5.5,5.5,0,0,1-7.44,7.44ZM3.05,19.05a11.59,11.59,0,0,0,2.89,2.89L9.08,16.8a5.53,5.53,0,0,1-.88-.88ZM12.5,1a11.5,11.5,0,0,0-10,17.21l5.13-3.12a5.5,5.5,0,0,1,7.44-7.44l3.12-5.13A11.43,11.43,0,0,0,12.5,1Zm0,7A4.5,4.5,0,1,0,17,12.5,4.5,4.5,0,0,0,12.5,8Zm3.42.2a5.53,5.53,0,0,1,.88.88l5.14-3.13a11.59,11.59,0,0,0-2.89-2.89ZM12.5,15A2.5,2.5,0,1,1,15,12.5,2.5,2.5,0,0,1,12.5,15Zm0-4A1.5,1.5,0,1,0,14,12.5,1.5,1.5,0,0,0,12.5,11Z" fill="#0e1d25"/></svg>