<svg id="Layer_1" data-name="Layer 1" xmlns="http://www.w3.org/2000/svg" viewBox="0 0 25 25"><title>CD</title><path id="CD" d="M12.5,10A2.5,2.5,0,1,0,15,12.5,2.5,2.5,0,0,0,12.5,10Zm0,4A1.5,1.5,0,1,1,14,12.5,1.5,1.5,0,0,1,12.5,14Zm0-14A12.5,12.5,0,1,0,25,12.5,12.52,12.52,0,0,0,12.5,0ZM6,21.94a11.34,11.34,0,0,1-2.89-2.89L8.2,15.92a5.23,5.23,0,0,0,.88.88ZM12.5,17A4.5,4.5,0,1,1,17,12.5,4.51,4.51,0,0,1,12.5,17Zm4.3-7.92a5.24,5.24,0,0,0-.88-.88L19,3.06a11.34,11.34,0,0,1,2.89,2.89Z" fill="#0e1d25"/></svg>