<svg id="Layer_1" data-name="Layer 1" xmlns="http://www.w3.org/2000/svg" viewBox="0 0 25 25"><title>Clipboard List</title><path id="Clipboard_List" data-name="Clipboard List" d="M9,20H6V17H9Zm0-4H6V13H9Zm0-4H6V9H9Zm10,7H11V18h8Zm0-4H11V14h8Zm0-4H11V10h8Zm2.75-8H18.91A1.5,1.5,0,0,0,17.5,2H15V1.5A1.5,1.5,0,0,0,13.5,0h-2A1.5,1.5,0,0,0,10,1.5V2H7.5A1.5,1.5,0,0,0,6.09,3H3.25A1.25,1.25,0,0,0,2,4.25v19.5A1.25,1.25,0,0,0,3.25,25h18.5A1.25,1.25,0,0,0,23,23.75V4.25A1.25,1.25,0,0,0,21.75,3ZM7,3.5A.5.5,0,0,1,7.5,3h3a.5.5,0,0,0,.5-.5v-1a.5.5,0,0,1,.5-.5h2a.5.5,0,0,1,.5.5v1a.5.5,0,0,0,.5.5h3a.5.5,0,0,1,.5.5V5H7Z" fill="#0e1d25"/></svg>