<svg id="Layer_1" data-name="Layer 1" xmlns="http://www.w3.org/2000/svg" viewBox="0 0 25 25"><title>Clipboard List</title><path id="Clipboard_List" data-name="Clipboard List" d="M21.75,25H3.25A1.25,1.25,0,0,1,2,23.75V4.25A1.25,1.25,0,0,1,3.25,3H6.09A1.5,1.5,0,0,1,7.5,2H10V1.5A1.5,1.5,0,0,1,11.5,0h2A1.5,1.5,0,0,1,15,1.5V2h2.5a1.5,1.5,0,0,1,1.41,1h2.84A1.25,1.25,0,0,1,23,4.25v19.5A1.25,1.25,0,0,1,21.75,25ZM3.25,4A.26.26,0,0,0,3,4.25v19.5a.26.26,0,0,0,.25.25h18.5a.26.26,0,0,0,.25-.25V4.25A.26.26,0,0,0,21.75,4H19V5.5a.5.5,0,0,1-.5.5H6.5A.5.5,0,0,1,6,5.5V4ZM7,5H18V3.5a.5.5,0,0,0-.5-.5h-3a.5.5,0,0,1-.5-.5v-1a.5.5,0,0,0-.5-.5h-2a.5.5,0,0,0-.5.5v1a.5.5,0,0,1-.5.5h-3a.5.5,0,0,0-.5.5ZM8.5,20h-2a.5.5,0,0,1-.5-.5v-2a.5.5,0,0,1,.5-.5h2a.5.5,0,0,1,.5.5v2A.5.5,0,0,1,8.5,20ZM7,19H8V18H7Zm12,0H11V18h8ZM8.5,16h-2a.5.5,0,0,1-.5-.5v-2a.5.5,0,0,1,.5-.5h2a.5.5,0,0,1,.5.5v2A.5.5,0,0,1,8.5,16ZM7,15H8V14H7Zm12,0H11V14h8ZM8.5,12h-2a.5.5,0,0,1-.5-.5v-2A.5.5,0,0,1,6.5,9h2a.5.5,0,0,1,.5.5v2A.5.5,0,0,1,8.5,12ZM7,11H8V10H7Zm12,0H11V10h8Z" fill="#0e1d25"/></svg>