<svg id="Layer_1" data-name="Layer 1" xmlns="http://www.w3.org/2000/svg" viewBox="0 0 25 25"><title>Cloud Checkmark</title><path id="Checkmark_Cloud" data-name="Checkmark Cloud" d="M18.72,22H6.28A6.19,6.19,0,0,1,0,15.92a6.17,6.17,0,0,1,5.33-6A7,7,0,0,1,12.5,3a7.05,7.05,0,0,1,7.17,6.91h0a6.16,6.16,0,0,1,5.33,6A6.19,6.19,0,0,1,18.72,22ZM12.5,4A6,6,0,0,0,6.33,9.91c0,.13,0,.27,0,.4a.5.5,0,0,1-.12.37.5.5,0,0,1-.35.18A5.18,5.18,0,0,0,1,15.92,5.19,5.19,0,0,0,6.28,21H18.72A5.19,5.19,0,0,0,24,15.92a5.17,5.17,0,0,0-4.89-5.05.5.5,0,0,1-.35-.18.5.5,0,0,1-.12-.37c0-.13,0-.27,0-.4A6.05,6.05,0,0,0,12.5,4ZM11,17.5a.5.5,0,0,1-.35-.14l-3-2.94.7-.71L11,16.3l4.65-4.65.71.71-5,5A.5.5,0,0,1,11,17.5Z" fill="#0e1d25"/></svg>