<svg id="Layer_1" data-name="Layer 1" xmlns="http://www.w3.org/2000/svg" viewBox="0 0 25 25"><title>Compass</title><path id="Compass" d="M12.5,25A12.5,12.5,0,1,1,25,12.5,12.51,12.51,0,0,1,12.5,25Zm0-24A11.5,11.5,0,1,0,24,12.5,11.51,11.51,0,0,0,12.5,1ZM6,19.5a.5.5,0,0,1-.47-.66L8.78,9.09a.5.5,0,0,1,.32-.32l9.75-3.25a.5.5,0,0,1,.63.63l-3.25,9.75a.5.5,0,0,1-.32.32L6.16,19.47ZM9.65,9.65,6.79,18.21l8.56-2.85,2.85-8.56ZM12.44,15a2.5,2.5,0,1,1,2.5-2.5A2.5,2.5,0,0,1,12.44,15Zm0-4a1.5,1.5,0,1,0,1.5,1.5A1.5,1.5,0,0,0,12.44,11Z" fill="#0e1d25"/></svg>