<svg id="Layer_1" data-name="Layer 1" xmlns="http://www.w3.org/2000/svg" viewBox="0 0 25 25"><title>Credit Card</title><path id="Credit_Card" data-name="Credit Card" d="M23.75,22H1.25A1.25,1.25,0,0,1,0,20.75V5.25A1.25,1.25,0,0,1,1.25,4h22.5A1.25,1.25,0,0,1,25,5.25v15.5A1.25,1.25,0,0,1,23.75,22ZM1,11v9.75a.25.25,0,0,0,.25.25h22.5a.25.25,0,0,0,.25-.25V11Zm0-1H24V8H1ZM1,7H24V5.25A.25.25,0,0,0,23.75,5H1.25A.25.25,0,0,0,1,5.25ZM21.5,18h-5a.5.5,0,0,1-.5-.5v-3a.5.5,0,0,1,.5-.5h5a.5.5,0,0,1,.5.5v3A.5.5,0,0,1,21.5,18ZM17,17h4V15H17Zm-5,1H3V17h9Zm-2-2H3V15h7Z" fill="#0e1d25"/></svg>