<svg id="Layer_1" data-name="Layer 1" xmlns="http://www.w3.org/2000/svg" viewBox="0 0 25 25"><title>Document</title><path id="Document_Scroll" data-name="Document Scroll" d="M21,25H5a3,3,0,0,1-3-3H2V.5A.5.5,0,0,1,2.5,0h19a.5.5,0,0,1,.5.5V20h1.5a.5.5,0,0,1,.5.5V22A3,3,0,0,1,21,25ZM3,22a2,2,0,0,0,.66,1.48A1.78,1.78,0,0,0,5,24h.2A2.08,2.08,0,0,0,7,21.89V20.5a.5.5,0,0,1,.5-.5H21V1H3Zm4.2,2H21a2,2,0,0,0,2-2V21H8v.89A3.17,3.17,0,0,1,7.2,24ZM15,17H6V16h9Zm3-3H6V13H18Zm0-3H6V10H18Zm0-3H6V7H18ZM16,5H6V4H16Z" fill="#0e1d25"/></svg>