<svg id="Layer_1" data-name="Layer 1" xmlns="http://www.w3.org/2000/svg" viewBox="0 0 25 25"><title>Earth</title><path id="Earth" d="M24.7,9.79A12.5,12.5,0,0,0,14.24.13,12.45,12.45,0,0,0,3.86,3.48a12.3,12.3,0,0,0-3.64,6.7h0A12.17,12.17,0,0,0,0,12.5a12.5,12.5,0,1,0,25,0A12.18,12.18,0,0,0,24.7,9.79ZM21.13,4.9a11.42,11.42,0,0,1,2.08,3.45h-.88a1.83,1.83,0,0,0-1.67,1.08,3.6,3.6,0,0,0,.17,3.37,2.4,2.4,0,0,1,.27,2.49c-.13.23-.3.39-.42.37s-.4-.23-.62-.82c-.62-1.61-1.36-1.74-2.12-1.75-.46,0-.76,0-1.19-1.11s.08-1.52.85-1.93c.55-.29,1.46-.77,1-1.82a1.22,1.22,0,0,0-1.87-.7,1.68,1.68,0,0,1-1.36.14,1.25,1.25,0,0,1-.77-1.39c.12-.7.76-1.12,1.71-1.12a8.68,8.68,0,0,0,4.25-.89C20.73,4.47,20.93,4.68,21.13,4.9Zm-7-3.79.57.11a2,2,0,0,1-.4,1A2.06,2.06,0,0,1,12.61,3,9.74,9.74,0,0,1,8.75,1.64,11.4,11.4,0,0,1,12.5,1,11.21,11.21,0,0,1,14.1,1.12ZM7.46,12.86A.5.5,0,0,0,7.9,13a2.92,2.92,0,0,1,2.61.65,7.88,7.88,0,0,0,.71.46,6.57,6.57,0,0,0,.92.4c.94.35,1.44.58,1.44,1.5a3.81,3.81,0,0,1-.85,2,5.8,5.8,0,0,0-1.23,3.29,1,1,0,0,1-.16.62A.35.35,0,0,1,11,22a2.3,2.3,0,0,1-1.67-2.49A2.32,2.32,0,0,0,7.77,17c-.6-.27-1-.45-1-1.59a2.72,2.72,0,0,1,.2-.95.5.5,0,0,0-.35-.69c-.6-.14-1.26-1-1.9-1.82-.25-.32-.5-.65-.76-.95A4.87,4.87,0,0,0,1.32,9.86l0-.11a11.35,11.35,0,0,1,.4-1.3l.09-.22A11.23,11.23,0,0,1,2.41,7l.06-.1a11.29,11.29,0,0,1,.74-1.15L3.3,5.6a11.52,11.52,0,0,1,.91-1.05l.1-.1a7.06,7.06,0,0,0,2.51.84c.62,0,2,.14,2,1.45,0,.59-.48.92-1.27,1.38A3.27,3.27,0,0,0,6.18,9.35C5.51,10.74,6.44,11.84,7.46,12.86ZM12.5,24A11.51,11.51,0,0,1,1,12.5a11.18,11.18,0,0,1,.14-1.66,4,4,0,0,1,2.07.82c.25.29.49.6.73.91a7.1,7.1,0,0,0,2,2,3.4,3.4,0,0,0-.12.85,2.32,2.32,0,0,0,1.59,2.5c.6.27,1,.45,1,1.58C8.36,21.55,9.77,23,11,23a1.36,1.36,0,0,0,1.06-.48,1.9,1.9,0,0,0,.4-1.26,4.93,4.93,0,0,1,1.07-2.74,4.64,4.64,0,0,0,1-2.5c0-1.66-1.21-2.11-2.09-2.43a5.73,5.73,0,0,1-.78-.33h0a7,7,0,0,1-.62-.4A3.87,3.87,0,0,0,8,12c-1-1-1.21-1.56-.91-2.18A2.64,2.64,0,0,1,8.1,9c.79-.46,1.76-1,1.76-2.24,0-1.81-1.64-2.45-3-2.45a5.13,5.13,0,0,1-1.72-.57A11.32,11.32,0,0,1,7.57,2.13c.94.56,3.28,1.83,5,1.83A3,3,0,0,0,15.06,2.8a3,3,0,0,0,.59-1.35A11.43,11.43,0,0,1,19.7,3.54a8,8,0,0,1-3.44.61A2.45,2.45,0,0,0,13.57,6.1,2.22,2.22,0,0,0,15,8.6a2.65,2.65,0,0,0,2.08-.17,2.07,2.07,0,0,1,.36-.13s.08,0,.21.33.09.19-.54.52c-.79.42-2.11,1.12-1.31,3.18.62,1.61,1.36,1.74,2.12,1.75.46,0,.76,0,1.19,1.11s1.06,1.43,1.49,1.46h.08A1.53,1.53,0,0,0,22,15.76a3.38,3.38,0,0,0-.33-3.56,2.61,2.61,0,0,1-.09-2.32.82.82,0,0,1,.78-.53h1.21c.06.22.14.43.19.66A11.17,11.17,0,0,1,24,12.5,11.51,11.51,0,0,1,12.5,24Z" fill="#0e1d25"/></svg>