<svg id="Layer_1" data-name="Layer 1" xmlns="http://www.w3.org/2000/svg" viewBox="0 0 25 25"><title>Earth</title><path id="Earth" d="M24.69,9.79A12.48,12.48,0,0,0,14.24.14,12.45,12.45,0,0,0,3.87,3.48,12.29,12.29,0,0,0,.23,10.18,12.1,12.1,0,0,0,0,12.5a12.49,12.49,0,0,0,25,0A12.16,12.16,0,0,0,24.69,9.79ZM21.12,4.91a11.39,11.39,0,0,1,2.26,3.94H22.32c-1.65,0-1.84,2.63-1.1,3.64,1.65,2.27-.55,5.35-1.65,2.51s-2.2,0-3.31-2.85S18.77,9.9,18.1,8.43s-1.29.27-2.94-.29-1.65-3.47,1.1-3.47a8.26,8.26,0,0,0,3.85-.75A11.4,11.4,0,0,1,21.12,4.91ZM12.5,1a11.35,11.35,0,0,1,1.6.12c.36,0,.71.12,1.05.2a2.5,2.5,0,0,1-2.54,2.14A10.83,10.83,0,0,1,8.13,1.88h0A11.39,11.39,0,0,1,12.5,1ZM4.56,4.21l.15-.13a6.68,6.68,0,0,0,2.13.71c1,0,2.54.39,2.54,1.95S7.15,8.52,6.64,9.57s.14,1.89,1.18,2.93c2-.34,2.6.58,3.64,1.16s2.61.58,2.61,2.33S12,18.9,12,21.23,8.87,22.4,8.87,19.49s-2.59-1.16-2.59-4.08a3.21,3.21,0,0,1,.25-1.15h0c-1-.23-1.94-1.79-2.92-2.92a4.53,4.53,0,0,0-2.38-1A11.31,11.31,0,0,1,4.56,4.21Z" fill="#0e1d25"/></svg>