<svg id="Layer_1" data-name="Layer 1" xmlns="http://www.w3.org/2000/svg" viewBox="0 0 25 25"><title>Erase</title><path id="Erase" d="M13.89,20.38,24.48,9.7a1.82,1.82,0,0,0,0-2.55L17.92.53a1.82,1.82,0,0,0-2.54,0L4.79,11.21A1.81,1.81,0,0,0,4.35,13L.63,16.76a2.18,2.18,0,0,0,0,3.08l3.48,3.51A2.16,2.16,0,0,0,5.64,24H21V23H10l2.14-2.16A1.81,1.81,0,0,0,13.89,20.38Zm-5,2.27a1.16,1.16,0,0,1-.82.34H5.64a1.16,1.16,0,0,1-.82-.35L1.34,19.14a1.18,1.18,0,0,1,0-1.67l3.56-3.6,6.35,6.41Zm-3.4-9.6a.81.81,0,0,1,0-1.14L16.09,1.23a.78.78,0,0,1,1.11,0l6.56,6.63a.81.81,0,0,1,0,1.14L13.18,19.68a.8.8,0,0,1-1.11,0Z" fill="#0e1d25"/></svg>