<svg id="Layer_1" data-name="Layer 1" xmlns="http://www.w3.org/2000/svg" viewBox="0 0 25 25"><title>Fire</title><path id="Fire" d="M12.48,25a10.09,10.09,0,0,1-1.9-.18A9.46,9.46,0,0,1,3,15.7c0-3.32,1.65-5.31,3.12-7.07s2.62-3.15,2-5.45a.5.5,0,0,1,.76-.54A10.3,10.3,0,0,1,12.61,7.2s0,.06.11.07a.16.16,0,0,0,.15-.12A9,9,0,0,0,12.06.76a.5.5,0,0,1,.06-.54.5.5,0,0,1,.52-.16,12.07,12.07,0,0,1,4.71,3C19.46,5.1,22,9,22,15.67a9.25,9.25,0,0,1-3.39,7.15A9.58,9.58,0,0,1,12.48,25Zm-.31-8.75c-.78.56-2.17,2-2.17,5.22a2.5,2.5,0,0,0,5,0,3.51,3.51,0,0,0-1.09-2.2A8.27,8.27,0,0,1,12.17,16.25Zm-2.85-12c.05,2.07-1.15,3.52-2.42,5C5.47,11,4,12.74,4,15.7a8.47,8.47,0,0,0,5.68,7.85A3.48,3.48,0,0,1,9,21.47c0-5.08,3.18-6.4,3.31-6.46a.51.51,0,0,1,.43,0,.5.5,0,0,1,.25.35,6.8,6.8,0,0,0,1.69,3.26A4.36,4.36,0,0,1,16,21.47a3.47,3.47,0,0,1-.67,2.05A8.46,8.46,0,0,0,18,22.05a8.26,8.26,0,0,0,3-6.38C21,6.1,15.78,2.55,13.45,1.44a9.73,9.73,0,0,1,.4,6,1.16,1.16,0,0,1-1.08.86,1.08,1.08,0,0,1-1.1-.73A8.59,8.59,0,0,0,9.32,4.23Z" fill="#0e1d25"/></svg>