<svg id="Layer_1" data-name="Layer 1" xmlns="http://www.w3.org/2000/svg" viewBox="0 0 25 25"><title>Folder</title><path id="Folder" d="M23.75,23H1.25A1.25,1.25,0,0,1,0,21.75V2.25A1.25,1.25,0,0,1,1.25,1h5.9a1.25,1.25,0,0,1,1,.45L10.23,4H23.75A1.25,1.25,0,0,1,25,5.25v16.5A1.25,1.25,0,0,1,23.75,23ZM1,8.25v13.5a.25.25,0,0,0,.25.25h22.5a.25.25,0,0,0,.25-.25V8.25A.25.25,0,0,0,23.75,8H1.25A.25.25,0,0,0,1,8.25ZM1.25,7h22.5L24,7V5.25A.25.25,0,0,0,23.75,5H10a.5.5,0,0,1-.38-.18L7.34,2.09A.25.25,0,0,0,7.15,2H1.25A.25.25,0,0,0,1,2.25V7Z" fill="#0e1d25"/></svg>