<svg id="Layer_1" data-name="Layer 1" xmlns="http://www.w3.org/2000/svg" viewBox="0 0 25 25"><title>Glasses</title><path id="Glasses" d="M24.88,15.35h0l-2.5-9.88A2,2,0,0,0,20.49,4H18V5h2.49a1,1,0,0,1,.93.73l1.67,6.61a5.48,5.48,0,0,0-8.39,1.49,3.77,3.77,0,0,0-4.4,0A5.49,5.49,0,0,0,2,12.25l1.8-6.51a1,1,0,0,1,1-.74H7V4H4.77A2,2,0,0,0,2.85,5.47L.28,14.79A8.72,8.72,0,0,0,0,16.33a5.58,5.58,0,0,0,5.5,5.59A5.47,5.47,0,0,0,11,16.46a5.34,5.34,0,0,0-.28-1.71,2.94,2.94,0,0,1,3.56,0,5.5,5.5,0,1,0,10.6.59Z" fill="#0e1d25"/></svg>