<svg id="Layer_1" data-name="Layer 1" xmlns="http://www.w3.org/2000/svg" viewBox="0 0 25 25"><title>Glasses</title><path id="Glasses" d="M19.5,22a5.5,5.5,0,0,1-5.22-7.25,2.9,2.9,0,0,0-3.57,0,5.5,5.5,0,1,1-10.42,0L2.85,5.47A2,2,0,0,1,4.77,4H7V5H4.77a1,1,0,0,0-1,.74L2,12.25a5.5,5.5,0,0,1,8.29,1.57,3.93,3.93,0,0,1,4.4,0,5.49,5.49,0,0,1,8.38-1.48l-1.67-6.6A1,1,0,0,0,20.49,5H18V4h2.49a2,2,0,0,1,1.89,1.47l2.39,9.47A5.5,5.5,0,0,1,19.5,22Zm0-10A4.5,4.5,0,1,0,24,16.5a4.57,4.57,0,0,0-.09-.91l-.1-.39A4.51,4.51,0,0,0,19.5,12ZM1.09,15.59A4.5,4.5,0,1,0,1.25,15Z" fill="#0e1d25"/></svg>