<svg id="Layer_1" data-name="Layer 1" xmlns="http://www.w3.org/2000/svg" viewBox="0 0 25 25"><title>Hard Drive</title><path id="Hard_Drive" data-name="Hard Drive" d="M24.91,16.14,21.35,3.84A1.25,1.25,0,0,0,20.17,3H4.83a1.26,1.26,0,0,0-1.19.87L.09,16.13a2,2,0,0,0-.09.6V21a2,2,0,0,0,2,2H23a2,2,0,0,0,2-2V16.73A2,2,0,0,0,24.91,16.14ZM4.6,4.17A.25.25,0,0,1,4.83,4H20.17a.25.25,0,0,1,.23.14l3.17,10.95A2,2,0,0,0,23,15H2a2,2,0,0,0-.57.09ZM24,21a1,1,0,0,1-1,1H2a1,1,0,0,1-1-1V17a1,1,0,0,1,1-1H23a1,1,0,0,1,1,1v4ZM5,19a1,1,0,1,1-1-1A1,1,0,0,1,5,19Zm3,0a1,1,0,1,1-1-1A1,1,0,0,1,8,19Zm3,0a1,1,0,1,1-1-1A1,1,0,0,1,11,19Zm2-1h9v1H13Z" fill="#0e1d25"/></svg>