<svg id="Layer_1" data-name="Layer 1" xmlns="http://www.w3.org/2000/svg" viewBox="0 0 25 25"><title>Hard Drive</title><path id="Hard_Drive" data-name="Hard Drive" d="M24.91,16.14,21.35,3.84A1.25,1.25,0,0,0,20.17,3H4.83a1.26,1.26,0,0,0-1.19.87L.09,16.13a2,2,0,0,0-.09.6H0V21a2,2,0,0,0,2,2H23a2,2,0,0,0,2-2V16.73A2,2,0,0,0,24.91,16.14ZM24,21a1,1,0,0,1-1,1H2a1,1,0,0,1-1-1V17a1,1,0,0,1,1-1H23a1,1,0,0,1,1,1v4ZM4,18a1,1,0,1,0,1,1A1,1,0,0,0,4,18Zm3,0a1,1,0,1,0,1,1A1,1,0,0,0,7,18Zm3,0a1,1,0,1,0,1,1A1,1,0,0,0,10,18Zm3,1h9V18H13Z" fill="#0e1d25"/></svg>