<svg id="Layer_1" data-name="Layer 1" xmlns="http://www.w3.org/2000/svg" viewBox="0 0 25 25"><title>Headphones</title><path id="Headphones" d="M22,25a3,3,0,0,1-3-3V17a3,3,0,0,1,5-2.23v-2.4a11.2,11.2,0,0,0-3.07-7.72L19.64,6a1.29,1.29,0,0,1-1.84.06A7.81,7.81,0,0,0,7.13,6,1.29,1.29,0,0,1,5.29,6L4.07,4.64A11.2,11.2,0,0,0,1,12.36v2.4A3,3,0,0,1,6,17v5a3,3,0,0,1-3,3,3,3,0,0,1-3-3V12.36A12.21,12.21,0,0,1,3.64,3.64a12.59,12.59,0,0,1,17.71,0A12.21,12.21,0,0,1,25,12.36V22A3,3,0,0,1,22,25Zm-2-3a2,2,0,0,0,4,0V17a2,2,0,0,0-4,0ZM1,22a2,2,0,0,0,2,2,2,2,0,0,0,2-2V17a2,2,0,0,0-4,0ZM12.47,3a8.82,8.82,0,0,1,6,2.41.3.3,0,0,0,.43,0l1.31-1.43a11.59,11.59,0,0,0-15.43,0L6,5.29a.3.3,0,0,0,.43,0A8.84,8.84,0,0,1,12.47,3Z" fill="#0e1d25"/></svg>