<svg id="Layer_1" data-name="Layer 1" xmlns="http://www.w3.org/2000/svg" viewBox="0 0 25 25"><title>Headphones</title><path id="Headphones" d="M21.36,3.64a12.67,12.67,0,0,0-2-1.6l-.26-.16c-.25-.16-.5-.31-.77-.45s-.36-.17-.54-.25S17.45,1,17.27.93,16.8.76,16.56.68L16.13.53c-.27-.08-.54-.14-.81-.2L15,.24c-.29-.06-.59-.09-.89-.13l-.32,0Q13.12,0,12.5,0T11.26.06l-.32,0c-.3,0-.6.07-.89.13L9.68.33c-.27.06-.54.12-.81.2L8.44.68C8.2.76,8,.84,7.73.93s-.37.17-.55.26-.36.16-.54.25-.51.3-.77.45L5.62,2a12.67,12.67,0,0,0-2,1.6A12.21,12.21,0,0,0,0,12.36V22a3,3,0,0,0,3,3,3,3,0,0,0,3-3V17a3,3,0,0,0-5-2.22V12.36A11.19,11.19,0,0,1,4.08,4.65L5.29,6A1.29,1.29,0,0,0,7.12,6,7.89,7.89,0,0,1,12.47,4,7.8,7.8,0,0,1,17.8,6.11a1.33,1.33,0,0,0,.9.35A1.26,1.26,0,0,0,19.64,6l1.28-1.4A11.19,11.19,0,0,1,24,12.36v2.42A3,3,0,0,0,19,17v5a3,3,0,0,0,6,0V12.36A12.21,12.21,0,0,0,21.36,3.64Z" fill="#0e1d25"/></svg>