<svg id="Layer_1" data-name="Layer 1" xmlns="http://www.w3.org/2000/svg" viewBox="0 0 25 25"><title>Loading Circles</title><path id="Home" d="M20.75,25H4.25A1.25,1.25,0,0,1,3,23.75V10.68L.85,12.82l-.71-.71,12-12a.5.5,0,0,1,.71,0l12,12-.71.71L22,10.71v13A1.25,1.25,0,0,1,20.75,25ZM16,24h4.75a.25.25,0,0,0,.25-.25V9.7L12.51,1.2,4,9.69V23.75a.25.25,0,0,0,.25.25H9V18.25A1.25,1.25,0,0,1,10.25,17h4.5A1.25,1.25,0,0,1,16,18.25Zm-6,0h5V18.25a.25.25,0,0,0-.25-.25h-4.5a.25.25,0,0,0-.25.25Z" fill="#0e1d25"/></svg>