<svg id="Layer_1" data-name="Layer 1" xmlns="http://www.w3.org/2000/svg" viewBox="0 0 25 25"><title>Hour Glass</title><path id="Hour_Glass" data-name="Hour Glass" d="M21,2.59V1h2V0H2V1H4V2.59c0,3.5,1.72,5.25,3.11,6.64C8.17,10.3,9,11.15,9,12.5s-.83,2.2-1.89,3.27C5.72,17.17,4,18.91,4,22.41V24H2v1H23V24H21V22.41c0-3.5-1.72-5.24-3.11-6.64C16.83,14.7,16,13.86,16,12.5s.83-2.2,1.89-3.27C19.28,7.83,21,6.09,21,2.59ZM15,12.5c0,1.77,1.06,2.84,2.18,4,1.39,1.4,2.82,2.85,2.82,5.94V24H5V22.41c0-3.09,1.43-4.54,2.82-5.94,1.12-1.13,2.18-2.2,2.18-4s-1.06-2.84-2.18-4C6.43,7.13,5,5.68,5,2.59V1H20V2.59c0,3.09-1.43,4.54-2.82,5.94C16.06,9.66,15,10.73,15,12.5Z" fill="#0e1d25"/></svg>