<svg id="Layer_1" data-name="Layer 1" xmlns="http://www.w3.org/2000/svg" viewBox="0 0 25 25"><title>House</title><path id="House" d="M24.82,10,21,6.84V1.5a.49.49,0,0,0-.5-.5h-3a.49.49,0,0,0-.5.5V3.56L12.82.12a.51.51,0,0,0-.64,0L.18,10a.5.5,0,0,0-.08.69l1.48,1.91a.5.5,0,0,0,.34.2.54.54,0,0,0,.37-.11L12.5,4.3l10.21,8.37a.51.51,0,0,0,.32.11h0a.5.5,0,0,0,.34-.2l1.48-1.91A.5.5,0,0,0,24.82,10ZM12.5,5.6,3,13.37V23.75A1.27,1.27,0,0,0,4.29,25H20.71A1.27,1.27,0,0,0,22,23.75V13.37ZM12,24H7V16.5a.49.49,0,0,1,.5-.5h4a.49.49,0,0,1,.5.5Zm7-4.5a.5.5,0,0,1-.5.5h-3a.5.5,0,0,1-.5-.5v-5a.49.49,0,0,1,.5-.5h3a.49.49,0,0,1,.5.5Z" fill="#0e1d25"/></svg>