<svg id="Layer_1" data-name="Layer 1" xmlns="http://www.w3.org/2000/svg" viewBox="0 0 25 25"><title>Image</title><path id="Image" d="M23.75,23H1.25A1.25,1.25,0,0,1,0,21.75V3.25A1.25,1.25,0,0,1,1.25,2h22.5A1.25,1.25,0,0,1,25,3.25v18.5A1.25,1.25,0,0,1,23.75,23ZM1.25,3A.25.25,0,0,0,1,3.25v18.5a.25.25,0,0,0,.25.25h22.5a.25.25,0,0,0,.25-.25V3.25A.25.25,0,0,0,23.75,3ZM20.5,19H4.5A.5.5,0,0,1,4,18.43C4.09,17.87,4.88,13,7.5,13a3.16,3.16,0,0,1,2.19,1.28c.35.37.73.77,1,.73s.41-.12.92-.91h0l.51-.82c1-1.61,1.92-3.17,3.33-3,1.65.13,3.31,2.54,5.55,8.05a.5.5,0,0,1-.46.69ZM5.1,18H19.75c-2.28-5.44-3.66-6.68-4.42-6.74s-1.62,1.26-2.4,2.55l-.52.84h0c-.56.88-1.09,1.31-1.66,1.37-.74.09-1.28-.49-1.8-1S8,14,7.5,14C6.2,14,5.4,16.55,5.1,18Zm2.4-7A2.5,2.5,0,1,1,10,8.5,2.5,2.5,0,0,1,7.5,11Zm0-4A1.5,1.5,0,1,0,9,8.5,1.5,1.5,0,0,0,7.5,7Z" fill="#0e1d25"/></svg>