<svg id="Layer_1" data-name="Layer 1" xmlns="http://www.w3.org/2000/svg" viewBox="0 0 25 25"><title>Inbox</title><path id="Inbox" d="M25,12.37s0,0,0,0l-3.27-9A2,2,0,0,0,19.82,2H5A2,2,0,0,0,3.1,3.35L0,12.34a.47.47,0,0,0,0,.06.48.48,0,0,0,0,.1v9.25A1.25,1.25,0,0,0,1.25,23h22.5A1.25,1.25,0,0,0,25,21.75V12.5A.48.48,0,0,0,25,12.37ZM4.05,3.68A1,1,0,0,1,5,3H19.82a1,1,0,0,1,.94.66l3,8.34H18.25A1.25,1.25,0,0,0,17,13.25v3.5a.25.25,0,0,1-.25.25H8.25A.25.25,0,0,1,8,16.75v-3.5A1.25,1.25,0,0,0,6.75,12H1.2Z" fill="#0e1d25"/></svg>