<svg id="Layer_1" data-name="Layer 1" xmlns="http://www.w3.org/2000/svg" viewBox="0 0 25 25"><title>Key</title><path id="Key" d="M24.5,25h-5a.5.5,0,0,1-.5-.5V22H16.5a.5.5,0,0,1-.5-.5V19H13.5a.5.5,0,0,1-.5-.5V16H11.29a.5.5,0,0,1-.35-.14L9.7,14.67A7.43,7.43,0,0,1,7.5,15,7.5,7.5,0,1,1,15,7.5a7.39,7.39,0,0,1-.18,1.61l10,10a.5.5,0,0,1,.15.35v5A.5.5,0,0,1,24.5,25ZM20,24h4V19.71L13.91,9.62a.5.5,0,0,1-.13-.48A6.5,6.5,0,1,0,7.5,14a6.47,6.47,0,0,0,2.16-.38.51.51,0,0,1,.51.11L11.49,15h2a.5.5,0,0,1,.5.5V18h2.5a.5.5,0,0,1,.5.5V21h2.5a.5.5,0,0,1,.5.5ZM6,9A3,3,0,1,1,9,6,3,3,0,0,1,6,9ZM6,4A2,2,0,1,0,8,6,2,2,0,0,0,6,4Z" fill="#0e1d25"/></svg>