<svg id="Layer_1" data-name="Layer 1" xmlns="http://www.w3.org/2000/svg" viewBox="0 0 25 25"><title>Laptop</title><path id="Laptop_Computer" data-name="Laptop Computer" d="M20.5,3H4.5a.5.5,0,0,0-.5.5v9a.5.5,0,0,0,.5.5h16a.5.5,0,0,0,.5-.5v-9A.5.5,0,0,0,20.5,3ZM20,12H5V4H20Zm5,9.36-2-7V3a2,2,0,0,0-2-2H4A2,2,0,0,0,2,3V14.37l-2,7a.53.53,0,0,0,0,.14v1.26A1.25,1.25,0,0,0,1.25,24h22.5A1.25,1.25,0,0,0,25,22.75V21.5A.53.53,0,0,0,25,21.36ZM2.86,15H22.14l1.7,6H1.16ZM3,3A1,1,0,0,1,4,2H21a1,1,0,0,1,1,1V14H3ZM23.75,23H1.25A.26.26,0,0,1,1,22.75V22H24v.75A.26.26,0,0,1,23.75,23ZM8.65,19.81A.5.5,0,0,0,9,20H16a.5.5,0,0,0,.49-.61l-.44-2a.5.5,0,0,0-.49-.39h-6a.5.5,0,0,0-.49.39l-.46,2A.5.5,0,0,0,8.65,19.81ZM9.9,18h5.24l.22,1H9.67Z" fill="#0e1d25"/></svg>