<svg id="Layer_1" data-name="Layer 1" xmlns="http://www.w3.org/2000/svg" viewBox="0 0 25 25"><title>Layers</title><path id="Stack_Layers" data-name="Stack Layers" d="M25,17.27a1.09,1.09,0,0,1-.58.91L13.58,24.72A2.17,2.17,0,0,1,12.5,25a2.13,2.13,0,0,1-1.07-.27L.59,18.19a1,1,0,0,1,0-1.83l1.19-.73,9,5.43a3.28,3.28,0,0,0,1.7.46,3.35,3.35,0,0,0,1.7-.45l9-5.44,1.19.71A1.1,1.1,0,0,1,25,17.27ZM.58,8.85l10.84,6.53a2.22,2.22,0,0,0,2.15,0L24.42,8.85A1.1,1.1,0,0,0,25,7.93,1.1,1.1,0,0,0,24.43,7L13.57.29a2.17,2.17,0,0,0-2.14,0L.57,7A1.1,1.1,0,0,0,0,7.93,1.1,1.1,0,0,0,.58,8.85Zm0,4.65L11.42,20a2.22,2.22,0,0,0,2.15,0l10.84-6.53a1,1,0,0,0,0-1.84l-1.14-.74-9.11,5.48a3.41,3.41,0,0,1-3.39,0l-9.13-5.5-1.11.7a1.14,1.14,0,0,0-.56,1A1.12,1.12,0,0,0,.58,13.5Z" fill="#0e1d25"/></svg>