<svg id="Layer_1" data-name="Layer 1" xmlns="http://www.w3.org/2000/svg" viewBox="0 0 25 25"><title>Layers</title><path id="Stack_Layers" data-name="Stack Layers" d="M12.5,25a2.12,2.12,0,0,1-1.08-.28L.58,18.18a1,1,0,0,1,0-1.84l2.32-1.43L.58,13.52a1,1,0,0,1,0-1.84l2.32-1.43L.58,8.85A1.1,1.1,0,0,1,0,7.93,1.1,1.1,0,0,1,.57,7L11.43.29a2.17,2.17,0,0,1,2.14,0L24.43,7a1.1,1.1,0,0,1,.57.93,1.1,1.1,0,0,1-.58.92l-2.31,1.39,2.32,1.43a1,1,0,0,1,0,1.85l-2.31,1.39,2.32,1.43a1,1,0,0,1,0,1.84L13.58,24.71A2.12,2.12,0,0,1,12.5,25ZM1,17.26l.09.06,10.84,6.53a1.23,1.23,0,0,0,1.12,0L23.9,17.33a.31.31,0,0,0,.09-.07l-.08-.06-2.76-1.7L13.58,20a2.23,2.23,0,0,1-2.15,0L3.85,15.49l-2.76,1.7ZM1,12.6l.09.06,10.84,6.53a1.23,1.23,0,0,0,1.12,0L23.9,12.66a.31.31,0,0,0,.09-.08l-.09-.06-2.76-1.7-7.58,4.56a2.22,2.22,0,0,1-2.15,0L3.85,10.82l-2.76,1.7A.32.32,0,0,0,1,12.6ZM1,7.93,1.1,8l10.84,6.53a1.24,1.24,0,0,0,1.12,0L23.9,8h0A.34.34,0,0,0,24,7.92l-.09-.07L13,1.14a1.19,1.19,0,0,0-1.09,0L1.1,7.86A.35.35,0,0,0,1,7.93Z" fill="#0e1d25"/></svg>