<svg id="Layer_1" data-name="Layer 1" xmlns="http://www.w3.org/2000/svg" viewBox="0 0 25 25"><title>Leaf</title><path id="Nature" d="M2.33,24H1.24c-.61,0-.94,0-1.13-.2a.5.5,0,0,1-.1-.42,30.22,30.22,0,0,1,2.05-6.23,7.18,7.18,0,0,1-2-6C.51,8.07,2.83,5,6.13,3.22,11.9,0,18.34.34,24.76,4.15a.5.5,0,0,1,0,.83C23,6.36,22.35,8.16,21.67,10.07a14.45,14.45,0,0,1-2.44,4.78c-2.8,3.35-9.47,6.49-14.32,4.36a20.67,20.67,0,0,0-1.4,4.38C3.44,23.94,3.42,24,2.33,24Zm-1.2-1H2.6a22.28,22.28,0,0,1,1.45-4.35l.14-.33a.5.5,0,0,1,.69-.25c4.38,2.32,11-.75,13.58-3.88a13.68,13.68,0,0,0,2.26-4.48,11.46,11.46,0,0,1,2.9-5.08c-4.25-2.37-10.46-4.2-17-.57-3,1.68-5.15,4.42-5.55,7.16a6.15,6.15,0,0,0,1.48,4.94,18.42,18.42,0,0,1,7-7.27l.51.86C4.29,13.21,2.26,18.33,1.13,23Z" fill="#0e1d25"/></svg>