<svg id="Layer_1" data-name="Layer 1" xmlns="http://www.w3.org/2000/svg" viewBox="0 0 25 25"><title>Link</title><path id="Link_2" data-name="Link 2" d="M7,25a2.38,2.38,0,0,1-1.68-.7L.7,19.73a2.38,2.38,0,0,1,0-3.37l5.22-5.22a2.37,2.37,0,0,1,1.69-.7h0a2.35,2.35,0,0,1,1.68.71l.92.92L8.8,13.48l-.93-.93c-.1-.1-.21-.14-.27-.12a.39.39,0,0,0-.27.12L2.11,17.78a.39.39,0,0,0,0,.54l4.57,4.57a.39.39,0,0,0,.54,0l5.22-5.22a.39.39,0,0,0,.12-.28.36.36,0,0,0-.11-.26l-.94-.94,1.41-1.42.93.93a2.34,2.34,0,0,1,.7,1.67,2.37,2.37,0,0,1-.7,1.7L8.64,24.3A2.38,2.38,0,0,1,7,25Zm1.36-6.9L6.9,16.69,16.69,6.9,18.1,8.31Zm9.08-3.54h0a2.35,2.35,0,0,1-1.68-.71l-.92-.92,1.42-1.41.93.93a.37.37,0,0,0,.27.12.39.39,0,0,0,.27-.12l5.22-5.22a.39.39,0,0,0,0-.54L18.32,2.11a.39.39,0,0,0-.54,0L12.56,7.33a.39.39,0,0,0-.12.28.36.36,0,0,0,.11.26l.94.94-1.41,1.42-.93-.93a2.34,2.34,0,0,1-.7-1.67,2.37,2.37,0,0,1,.7-1.7L16.36.7a2.39,2.39,0,0,1,3.37,0L24.3,5.27a2.38,2.38,0,0,1,0,3.37l-5.22,5.22A2.37,2.37,0,0,1,17.39,14.56Z" fill="#0e1d25"/></svg>