<svg id="Layer_1" data-name="Layer 1" xmlns="http://www.w3.org/2000/svg" viewBox="0 0 25 25"><title>Link</title><path id="Link_2" data-name="Link 2" d="M6.71,24.89a1.93,1.93,0,0,1-1.37-.57L.57,19.56a1.95,1.95,0,0,1,0-2.75L6,11.36a1.82,1.82,0,0,1,1.39-.57,1.91,1.91,0,0,1,1.36.58l1,1L9,13l-1-1a1,1,0,0,0-.66-.28.94.94,0,0,0-.67.28L1.27,17.52a.94.94,0,0,0,0,1.33L6,23.62a.94.94,0,0,0,1.33,0l5.45-5.45a.94.94,0,0,0,.28-.67.92.92,0,0,0-.28-.66l-1-1,.71-.71,1,1a1.91,1.91,0,0,1,.57,1.36,1.94,1.94,0,0,1-.57,1.39L8.08,24.33A1.93,1.93,0,0,1,6.71,24.89Zm1-7L7,17.15,17.25,6.93l.71.71ZM17.61,14h0a1.91,1.91,0,0,1-1.36-.58l-1-1,.71-.71,1,1a.77.77,0,0,0,.66.28.94.94,0,0,0,.67-.28l5.45-5.45a.94.94,0,0,0,0-1.33L19,1.17a.94.94,0,0,0-1.33,0L12.17,6.62a.94.94,0,0,0-.28.67.92.92,0,0,0,.28.66l1,1-.71.71-1-1a1.91,1.91,0,0,1-.57-1.36,1.94,1.94,0,0,1,.57-1.39L16.92.46a2,2,0,0,1,2.75,0l4.77,4.77a1.95,1.95,0,0,1,0,2.75L19,13.43A1.94,1.94,0,0,1,17.61,14Z" fill="#0e1d25"/></svg>