<svg id="Layer_1" data-name="Layer 1" xmlns="http://www.w3.org/2000/svg" viewBox="0 0 25 25"><title>Lock</title><path id="Lock" d="M22.75,12H21V8.5a8.5,8.5,0,0,0-17,0V12H2.25A1.25,1.25,0,0,0,1,13.25v10.5A1.25,1.25,0,0,0,2.25,25h20.5A1.25,1.25,0,0,0,24,23.75V13.25A1.25,1.25,0,0,0,22.75,12ZM5,8.5a7.5,7.5,0,0,1,15,0V12H5ZM23,23.75a.25.25,0,0,1-.25.25H2.25A.25.25,0,0,1,2,23.75V13.25A.25.25,0,0,1,2.25,13h20.5a.25.25,0,0,1,.25.25ZM12.5,15A2.49,2.49,0,0,0,11,19.49v2a.5.5,0,0,0,.5.5h2a.5.5,0,0,0,.5-.5v-2A2.49,2.49,0,0,0,12.5,15Zm.75,3.79a.5.5,0,0,0-.25.43V21H12V19.22a.5.5,0,0,0-.25-.43A1.48,1.48,0,0,1,11,17.5a1.5,1.5,0,0,1,3,0A1.48,1.48,0,0,1,13.25,18.79Z" fill="#0e1d25"/></svg>