<svg id="Layer_1" data-name="Layer 1" xmlns="http://www.w3.org/2000/svg" viewBox="0 0 25 25"><title>Media Gallery</title><path id="Media_Gallery" data-name="Media Gallery" d="M23.75,24H1.25A1.25,1.25,0,0,1,0,22.75V7.25A1.25,1.25,0,0,1,1.25,6h22.5A1.25,1.25,0,0,1,25,7.25v15.5A1.25,1.25,0,0,1,23.75,24ZM1.25,7A.25.25,0,0,0,1,7.25v15.5a.25.25,0,0,0,.25.25h22.5a.25.25,0,0,0,.25-.25V7.25A.25.25,0,0,0,23.75,7ZM9.5,20a.5.5,0,0,1-.5-.5v-9a.5.5,0,0,1,.77-.42l7,4.5a.5.5,0,0,1,0,.84l-7,4.5A.5.5,0,0,1,9.5,20Zm.5-8.58v7.17L15.58,15ZM23,5H2V4H23ZM21,3H4V2H21Z" fill="#0e1d25"/></svg>