<svg id="Layer_1" data-name="Layer 1" xmlns="http://www.w3.org/2000/svg" viewBox="0 0 25 25"><title>Megaphone</title><path id="Megaphone" d="M25,12a3.49,3.49,0,0,0-3-3.45V1.5a.5.5,0,0,0-.5-.5c-2,0-3.47,1.88-4.89,3.69C15.33,6.32,14,8,12.5,8H4.16A1.16,1.16,0,0,0,3,9.16V10H2a2,2,0,0,0,0,4H3v.84A1.16,1.16,0,0,0,4.16,16H4v6.73A1.27,1.27,0,0,0,5.26,24H7.74A1.26,1.26,0,0,0,9,22.75V16.53c0-.22,0-.53,1-.53h2.5c1.58,0,2.91,1.74,4.19,3.38S19.52,23,21.5,23a.5.5,0,0,0,.5-.5V15.45A3.49,3.49,0,0,0,25,12ZM2,13a1,1,0,0,1,0-2H3v2Zm6,3.53v6.22a.26.26,0,0,1-.26.25H5.26A.27.27,0,0,1,5,22.73V16H8.08A1.71,1.71,0,0,0,8,16.53ZM4.16,15A.16.16,0,0,1,4,14.84V9.16A.16.16,0,0,1,4.16,9H12v6ZM21,21.94c-1.27-.3-2.37-1.7-3.52-3.17-1.31-1.67-2.66-3.4-4.48-3.67V9c1.75-.28,3.09-2,4.39-3.65C18.53,3.86,19.7,2.38,21,2.06Zm1-7.49V9.55a2.5,2.5,0,0,1,0,4.9Z" fill="#0e1d25"/></svg>