<svg id="Layer_1" data-name="Layer 1" xmlns="http://www.w3.org/2000/svg" viewBox="0 0 25 25"><title>Megaphone</title><path id="Megaphone" d="M2,10v4a2,2,0,0,1,0-4ZM23,8.87v6.27a3.46,3.46,0,0,0,0-6.27ZM3,9.16v5.69A1.16,1.16,0,0,0,4.16,16H4v6.73A1.27,1.27,0,0,0,5.26,24H7.74A1.26,1.26,0,0,0,9,22.75V16.53c0-.22,0-.53,1-.53h2V8H4.16A1.16,1.16,0,0,0,3,9.16ZM21.5,1c-2,0-3.47,1.88-4.89,3.69C15.47,6.13,14.3,7.62,13,7.93v8.2c1.37.31,2.55,1.8,3.69,3.26C18.08,21.16,19.52,23,21.5,23a.5.5,0,0,0,.5-.5V1.5A.5.5,0,0,0,21.5,1Z" fill="#0e1d25"/></svg>