<svg id="Layer_1" data-name="Layer 1" xmlns="http://www.w3.org/2000/svg" viewBox="0 0 25 25"><title>Music Note</title><path id="Music_Note" data-name="Music Note" d="M7.84,25a4.75,4.75,0,0,1-4.68-3.23,4.13,4.13,0,0,1,.41-3.21,5.16,5.16,0,0,1,3.2-2.37A5.2,5.2,0,0,1,12,17.68V.5a.5.5,0,0,1,.17-.37A.51.51,0,0,1,12.55,0C12.65,0,22,1.09,22,11.5a.5.5,0,0,1-.91.29C21,11.73,17,6.08,13,6l0,14a4.19,4.19,0,0,1-.55,2.45,5.16,5.16,0,0,1-3.2,2.37A5.57,5.57,0,0,1,7.84,25Zm.33-8A4.57,4.57,0,0,0,7,17.15,4.15,4.15,0,0,0,4.44,19a3.14,3.14,0,0,0-.32,2.44A3.92,3.92,0,0,0,9,23.85,4.15,4.15,0,0,0,11.56,22a3.14,3.14,0,0,0,.32-2.44A3.74,3.74,0,0,0,8.17,17ZM13,5c3.28,0,6.38,3.12,7.91,4.92A9.62,9.62,0,0,0,13,1.09Z" fill="#0e1d25"/></svg>