<svg id="Layer_1" data-name="Layer 1" xmlns="http://www.w3.org/2000/svg" viewBox="0 0 25 25"><title>Newspaper</title><path id="Newspaper" d="M2.62,23H2.38A2.66,2.66,0,0,1,0,20.41V7.5A.5.5,0,0,1,.5,7H4V3.5A.5.5,0,0,1,4.5,3h20a.5.5,0,0,1,.5.5v17A2.5,2.5,0,0,1,22.5,23H2.62Zm1.92-1h18A1.5,1.5,0,0,0,24,20.5V4H5V20.5A2.63,2.63,0,0,1,4.54,22Zm-2,0h.09a1.29,1.29,0,0,0,.85-.34A1.56,1.56,0,0,0,4,20.5V8H1V20.41A1.66,1.66,0,0,0,2.48,22ZM22,19H7V18H22Zm0-3H7V15H22Zm0-3H15V12h7Zm-9.5,0h-5a.5.5,0,0,1-.5-.5v-6A.5.5,0,0,1,7.5,6h5a.5.5,0,0,1,.5.5v6A.5.5,0,0,1,12.5,13ZM8,12h4V7H8Zm14-2H15V9h7Zm0-3H15V6h7Z" fill="#0e1d25"/></svg>