<svg id="Layer_1" data-name="Layer 1" xmlns="http://www.w3.org/2000/svg" viewBox="0 0 25 25"><title>No Eye</title><path id="No_View" data-name="No View" d="M23.15,1.15,18.74,5.55A12.85,12.85,0,0,0,12.5,4C3.47,4,.07,12.23,0,12.31a.5.5,0,0,0,0,.37,15.18,15.18,0,0,0,5.34,6.23L1.15,23.15l.71.71,22-22ZM9.11,12.5A3.5,3.5,0,0,1,12.61,9a3.41,3.41,0,0,1,2,.67L9.78,14.51A3.41,3.41,0,0,1,9.11,12.5ZM25,12.31a15.17,15.17,0,0,0-4.51-5.66l-4.59,4.59a3.47,3.47,0,0,1,.24,1.26,3.5,3.5,0,0,1-3.5,3.5,3.47,3.47,0,0,1-1.26-.24L7.2,19.9A13,13,0,0,0,12.5,21c9,0,12.43-8.23,12.46-8.31A.5.5,0,0,0,25,12.31Z" fill="#0e1d25"/></svg>