<?xml version="1.0" encoding="utf-8"?>
<!-- Generator: Adobe Illustrator 21.0.2, SVG Export Plug-In . SVG Version: 6.00 Build 0)  -->
<svg version="1.1" id="Layer_1" xmlns="http://www.w3.org/2000/svg" xmlns:xlink="http://www.w3.org/1999/xlink" x="0px" y="0px"
	 viewBox="0 0 25 25" enable-background="new 0 0 25 25" xml:space="preserve">
<path id="No_View" fill="#0E1D25" d="M1.85,23.85l-0.71-0.71l4.22-4.22c-3.76-2.44-5.3-6.19-5.33-6.24c-0.05-0.12-0.05-0.25,0-0.37
	C0.07,12.23,3.47,4,12.5,4c2.5,0,4.57,0.63,6.25,1.54l4.4-4.4l0.71,0.71l-4.22,4.22c3.76,2.44,5.3,6.19,5.33,6.24
	c0.05,0.12,0.05,0.25,0,0.37C24.93,12.77,21.53,21,12.5,21c-2.5,0-4.57-0.63-6.25-1.54L1.85,23.85z M6.97,18.73
	C8.48,19.49,10.31,20,12.5,20c7.71,0,10.92-6.3,11.46-7.5c-0.35-0.79-1.85-3.77-5.02-5.73l-2.86,2.86c0.65,0.78,1.04,1.78,1.04,2.87
	c0,2.48-2.02,4.5-4.5,4.5c-1.09,0-2.09-0.39-2.87-1.04L6.97,18.73z M1.04,12.5c0.35,0.79,1.85,3.77,5.02,5.73l2.98-2.98
	c-0.59-0.76-0.94-1.71-0.94-2.74c0-2.48,2.02-4.5,4.5-4.5c1.03,0,1.98,0.35,2.74,0.94l2.67-2.67C16.52,5.51,14.69,5,12.5,5
	C4.79,5,1.58,11.3,1.04,12.5z M10.45,15.25c0.6,0.47,1.35,0.75,2.16,0.75c1.93,0,3.5-1.57,3.5-3.5c0-0.81-0.28-1.56-0.75-2.16
	L10.45,15.25z M12.61,9c-1.93,0-3.5,1.57-3.5,3.5c0,0.76,0.24,1.46,0.65,2.03l4.88-4.88C14.07,9.24,13.37,9,12.61,9z"/>
</svg>
