<svg id="Layer_1" data-name="Layer 1" xmlns="http://www.w3.org/2000/svg" viewBox="0 0 25 25"><title>Notification</title><path id="Notification" d="M25,20c-1.31,0-3-2-3-3.17V11.31a9.44,9.44,0,0,0-7-8.89h0a2.48,2.48,0,0,0-5-.07h0a9.25,9.25,0,0,0-7,8.78v5.7c0,1-.75,3.17-3,3.17v1H8.1a4.41,4.41,0,0,0,8.79,0H25ZM12.5,1a1.46,1.46,0,0,1,1.44,1.16A7.76,7.76,0,0,0,12.5,2a9.85,9.85,0,0,0-1.43.11A1.46,1.46,0,0,1,12.5,1Zm0,23a3.44,3.44,0,0,1-3.39-3H15.9A3.44,3.44,0,0,1,12.5,24ZM2.62,20A4.57,4.57,0,0,0,4,16.83v-5.7a8.25,8.25,0,0,1,6.25-7.82A8.29,8.29,0,0,1,12.5,3a8.49,8.49,0,0,1,2.25.37A8.42,8.42,0,0,1,21,11.31v5.52A4.8,4.8,0,0,0,22.78,20Z" fill="#0e1d25"/></svg>