<svg id="Layer_1" data-name="Layer 1" xmlns="http://www.w3.org/2000/svg" viewBox="0 0 25 25"><title>Open Mail</title><path id="Open_Message" data-name="Open Message" d="M17,5H8V4h9ZM8,7V8h8V7Zm0,4h9V10H8Zm-8-.35v13.1a1.21,1.21,0,0,0,.11.5l7-6.75ZM17.91,17.5l7,6.74a1.22,1.22,0,0,0,.1-.49V10.64ZM5,1H20V14.09l4.91-4.76a1.78,1.78,0,0,0-.63-.73L21,6.13V.5a.5.5,0,0,0-.5-.5H4.5A.5.5,0,0,0,4,.5V5.75L.63,8.48a1.86,1.86,0,0,0-.55.85L5,14.09ZM8,18,.87,24.92a1.28,1.28,0,0,0,.42.08H23.72a1.29,1.29,0,0,0,.44-.09L17,18Z" fill="#0e1d25"/></svg>