<svg id="Layer_1" data-name="Layer 1" xmlns="http://www.w3.org/2000/svg" viewBox="0 0 25 25"><title>Open Folder</title><path id="Open_Folder" data-name="Open Folder" d="M21.52,23H1.25A1.25,1.25,0,0,1,0,21.75V2.25A1.25,1.25,0,0,1,1.25,1H6.69a1.25,1.25,0,0,1,1,.45L9.79,4H20.88A1.14,1.14,0,0,1,22,5.25V9h1.74A1.25,1.25,0,0,1,25,10.49L22.75,22A1.26,1.26,0,0,1,21.52,23ZM3.64,10a.25.25,0,0,0-.25.2L1.16,21.7a.24.24,0,0,0,.05.2.25.25,0,0,0,.2.09h20.1a.25.25,0,0,0,.25-.2L24,10.3a.24.24,0,0,0-.05-.2.25.25,0,0,0-.2-.09ZM1.25,2A.25.25,0,0,0,1,2.25v15L2.41,10A1.26,1.26,0,0,1,3.64,9H21V5.25C21,5,20.91,5,20.88,5H9.56a.5.5,0,0,1-.38-.18L6.89,2.09A.25.25,0,0,0,6.69,2Z" fill="#0e1d25"/></svg>