<svg id="Layer_1" data-name="Layer 1" xmlns="http://www.w3.org/2000/svg" viewBox="0 0 25 25"><title>Open Book</title><path id="Open_Book" data-name="Open Book" d="M12.49,25a.64.64,0,0,1-.55-.32C10.91,22.92,6.25,21,.5,21a.5.5,0,0,1-.5-.5V.5A.5.5,0,0,1,.5,0c6,0,10.39,1.78,12,3.64,1.83-2,7.15-3.64,12-3.64a.5.5,0,0,1,.5.5v20a.5.5,0,0,1-.5.5c-5,0-10.73,2.06-11.46,3.65a.61.61,0,0,1-.53.36ZM1,20c4.66.09,9,1.39,11,3.22V4.63C11,2.88,6.66,1.1,1,1ZM13,4.63V23.2c2.1-1.73,7.1-3.08,11-3.19V1C19,1.13,14,3,13,4.63Z" fill="#0e1d25"/></svg>