<svg id="Layer_1" data-name="Layer 1" xmlns="http://www.w3.org/2000/svg" viewBox="0 0 25 25"><title>Open Mail</title><path id="Open_Message" data-name="Open Message" d="M17,5H8V4h9ZM16,7H8V8h8Zm1,3H8v1h9Zm8-.25v14A1.27,1.27,0,0,1,23.72,25H1.28A1.27,1.27,0,0,1,0,23.75v-14A1.56,1.56,0,0,1,.75,8.58L4,6.14V.5A.5.5,0,0,1,4.5,0h16a.5.5,0,0,1,.5.5V6.14L24.28,8.6A1.53,1.53,0,0,1,25,9.75ZM5,14.12,8,17h9l3-2.89V1H5ZM1,10.29l3,2.87V7.39l-2.68,2A.79.79,0,0,0,1,9.75ZM7.08,17.5,1,11.67V23.33ZM23.26,24,17,18H8L1.74,24ZM24,11.67,17.92,17.5,24,23.33Zm0-1.92a.74.74,0,0,0-.29-.33L21,7.39v5.78l3-2.87Z" fill="#0e1d25"/></svg>