<svg id="Layer_1" data-name="Layer 1" xmlns="http://www.w3.org/2000/svg" viewBox="0 0 25 25"><title>Paint Color Palette</title><path id="Paint_Color_Palette" data-name="Paint Color Palette" d="M12.53,25a12.5,12.5,0,0,1,0-25A13.17,13.17,0,0,1,22.84,4.89c2.76,3.56,2.46,6.36,1.26,7.79a2.76,2.76,0,0,1-3.45.78h0c-1.65-.87-3-.37-3.56.58s-.16,2.57,2,3.76A2.81,2.81,0,0,1,20.29,21C19.79,23,17.49,25,12.53,25Zm0-24a11.5,11.5,0,0,0,0,23c4.39,0,6.39-1.66,6.8-3.21a1.81,1.81,0,0,0-.78-2.12c-2.69-1.52-3.1-3.71-2.34-5.11s2.68-2.16,4.9-1h0A1.79,1.79,0,0,0,23.33,12C24.24,11,24.45,8.59,22,5.5A12.32,12.32,0,0,0,12.53,1Zm-1,21A2.5,2.5,0,1,1,14,19.5,2.5,2.5,0,0,1,11.5,22Zm0-4A1.5,1.5,0,1,0,13,19.5,1.5,1.5,0,0,0,11.5,18Zm-5-1A2.5,2.5,0,1,1,9,14.5,2.5,2.5,0,0,1,6.5,17Zm0-4A1.5,1.5,0,1,0,8,14.5,1.5,1.5,0,0,0,6.5,13Zm2-3A2.5,2.5,0,1,1,11,7.5,2.5,2.5,0,0,1,8.5,10Zm0-4A1.5,1.5,0,1,0,10,7.5,1.5,1.5,0,0,0,8.5,6Zm7,3A2.5,2.5,0,1,1,18,6.5,2.5,2.5,0,0,1,15.5,9Zm0-4A1.5,1.5,0,1,0,17,6.5,1.5,1.5,0,0,0,15.5,5Z" fill="#0e1d25"/></svg>