<svg id="Layer_1" data-name="Layer 1" xmlns="http://www.w3.org/2000/svg" viewBox="0 0 25 25"><title>Pen Tool</title><path id="Pen_Tool" data-name="Pen Tool" d="M13.5,25h-2a.5.5,0,0,1-.44-.26l-7-12.5a.5.5,0,0,1,0-.48L7.92,4.52,5.58.77A.5.5,0,0,1,6,0H19a.5.5,0,0,1,.42.77L17.08,4.52l3.86,7.24a.5.5,0,0,1,0,.48l-7,12.5A.5.5,0,0,1,13.5,25Zm-1.71-1h1.41l6.72-12L16.2,5H8.8L5.07,12Zm-3-20h7.45L18.1,1H6.9ZM13,24H12V15a2.5,2.5,0,1,1,1,0Zm-.5-13A1.5,1.5,0,1,0,14,12.5,1.5,1.5,0,0,0,12.5,11Z" fill="#0e1d25"/></svg>