<svg id="Layer_1" data-name="Layer 1" xmlns="http://www.w3.org/2000/svg" viewBox="0 0 25 25"><title>Pen</title><path id="Pen" d="M25,2.23a.47.47,0,0,0-.15-.35L23.12.15a.51.51,0,0,0-.71,0L20.9,1.67a1.5,1.5,0,0,0-1.84.12l-.37-.37a2,2,0,0,0-2.83,0l-5.7,5.7.71.71,5.7-5.7a1,1,0,0,1,1.42,0l.36.36-16.09,16,4.18,4.19L23.19,6a1.47,1.47,0,0,0,.15-1.88l1.51-1.51A.49.49,0,0,0,25,2.23ZM22.67,3.36l-1-1,1.13-1.12,1,1ZM1.57,19.27a.56.56,0,0,0,0,.08l-1.5,5a.5.5,0,0,0,.13.49A.47.47,0,0,0,.5,25l.15,0,5-1.51a.59.59,0,0,0,.11-.06Z" fill="#0e1d25"/></svg>