<svg id="Layer_1" data-name="Layer 1" xmlns="http://www.w3.org/2000/svg" viewBox="0 0 25 25"><title>Pen</title><path id="Pen" d="M25,2.23a.5.5,0,0,0-.15-.35L23.12.15a.51.51,0,0,0-.71,0L20.9,1.67a1.5,1.5,0,0,0-1.83.12l-.37-.37a2,2,0,0,0-2.83,0l-5.7,5.7.71.71,5.7-5.7a1,1,0,0,1,1.42,0l.36.36L1.65,19.14a.5.5,0,0,0-.13.21l-1.5,5A.5.5,0,0,0,.5,25l.15,0,5-1.51a.5.5,0,0,0,.21-.12L23.19,6a1.47,1.47,0,0,0,.15-1.88l1.52-1.52A.5.5,0,0,0,25,2.23ZM2.36,20l2.58,2.58L1.25,23.75ZM22.48,5.28,5.74,22,3,19.24,19.72,2.52a.5.5,0,0,1,.69,0l2.07,2.07A.48.48,0,0,1,22.48,5.28Zm.18-1.92-1-1,1.13-1.13,1,1Z" fill="#0e1d25"/></svg>