<svg id="Layer_1" data-name="Layer 1" xmlns="http://www.w3.org/2000/svg" viewBox="0 0 25 25"><title>Pin</title><path id="Pin" d="M.49,24.8a.49.49,0,0,1-.35-.15.5.5,0,0,1,0-.71l7-6.85-5.74-6a.5.5,0,0,1,0-.71l.17-.16A6.53,6.53,0,0,1,8.88,9l5-4.93A3.53,3.53,0,0,1,14.8.41L15,.19a.49.49,0,0,1,.7,0l9.14,9.53a.5.5,0,0,1,0,.71l-.23.22h0a3.45,3.45,0,0,1-3.62.77l-5,4.93a6.68,6.68,0,0,1-1.5,7.29l-.17.16a.49.49,0,0,1-.7,0l-5.74-6-7,6.85A.49.49,0,0,1,.49,24.8Zm2-13.86L14.12,22.71A5.66,5.66,0,0,0,13.94,15h0l-3.79-3.83a5.53,5.53,0,0,0-7.69-.18Zm12.18,3.3a6.66,6.66,0,0,1,.9,1.12l4.54-4.58a3.42,3.42,0,0,1-.38-.33L14.6,5.32a3.44,3.44,0,0,1-.33-.39L9.73,9.51a6.63,6.63,0,0,1,1.11.9Zm.54-13a2.52,2.52,0,0,0,.12,3.4l5.09,5.14a2.46,2.46,0,0,0,3.37.13Zm9.06,8.89h0Z" fill="#0e1d25"/></svg>