<svg id="Layer_1" data-name="Layer 1" xmlns="http://www.w3.org/2000/svg" viewBox="0 0 25 25"><title>Plugin</title><path id="Plugin" d="M13,25a1.39,1.39,0,0,1-1-.41L9,21.51a4.07,4.07,0,0,1-.76,1.06A4.09,4.09,0,1,1,3.49,16L.41,12.95a1.4,1.4,0,0,1,0-2L3.5,7.89a.5.5,0,0,1,.84.22,3.08,3.08,0,0,0,5.4,1.12,3.12,3.12,0,0,0,.11-3.7,3.07,3.07,0,0,0-1.73-1.2.5.5,0,0,1-.22-.84L11,.41a1.43,1.43,0,0,1,2,0L16,3.49A4.09,4.09,0,1,1,21.51,9l3.08,3.08a1.4,1.4,0,0,1,0,2L21.5,17.11a.5.5,0,0,1-.48.13.5.5,0,0,1-.35-.35,3.08,3.08,0,0,0-5.4-1.12,3.12,3.12,0,0,0-.11,3.7,3.07,3.07,0,0,0,1.73,1.2.5.5,0,0,1,.22.84L14,24.59A1.39,1.39,0,0,1,13,25ZM8.78,20.11a.5.5,0,0,1,.35.15l3.63,3.63a.4.4,0,0,0,.56,0l2.54-2.54a4.09,4.09,0,1,1,5.48-5.48l2.54-2.54a.4.4,0,0,0,0-.56L20.26,9.13a.5.5,0,0,1,.22-.84A3.08,3.08,0,0,0,21.6,2.9a3.12,3.12,0,0,0-3.7-.11h0a3.07,3.07,0,0,0-1.2,1.73.5.5,0,0,1-.84.22L12.24,1.12a.4.4,0,0,0-.56,0L9.14,3.66A4.09,4.09,0,1,1,3.66,9.14L1.12,11.68a.4.4,0,0,0,0,.56l3.63,3.63a.5.5,0,0,1-.22.84,3.07,3.07,0,0,0-1.73,1.2,3.12,3.12,0,0,0,.11,3.7,3.06,3.06,0,0,0,2.25,1.16,3.08,3.08,0,0,0,3.15-2.28.5.5,0,0,1,.35-.35Z" fill="#0e1d25"/></svg>