<svg id="Layer_1" data-name="Layer 1" xmlns="http://www.w3.org/2000/svg" viewBox="0 0 25 25"><title>Plugin</title><path id="Plugin" d="M24.59,12.05,21.51,9a4.08,4.08,0,0,0,2.25-3.88A4.09,4.09,0,0,0,16,3.49L13,.41a1.43,1.43,0,0,0-2,0L7.89,3.5a.5.5,0,0,0,.22.84,3.07,3.07,0,0,1,1.73,1.2,3.12,3.12,0,0,1-.11,3.7,3.08,3.08,0,0,1-5.4-1.12.5.5,0,0,0-.84-.22L.41,11a1.4,1.4,0,0,0,0,2L3.49,16A4.09,4.09,0,1,0,9,21.51L12,24.59a1.4,1.4,0,0,0,2,0l3.09-3.09a.5.5,0,0,0-.22-.84,3.07,3.07,0,0,1-1.73-1.2,3.12,3.12,0,0,1,.11-3.7,3.08,3.08,0,0,1,5.4,1.12.5.5,0,0,0,.35.35.5.5,0,0,0,.48-.13L24.59,14a1.4,1.4,0,0,0,0-2Z" fill="#0e1d25"/></svg>