<?xml version="1.0" encoding="utf-8"?>
<!-- Generator: Adobe Illustrator 21.0.2, SVG Export Plug-In . SVG Version: 6.00 Build 0)  -->
<svg version="1.1" id="Layer_1" xmlns="http://www.w3.org/2000/svg" xmlns:xlink="http://www.w3.org/1999/xlink" x="0px" y="0px"
	 viewBox="0 0 25 25" enable-background="new 0 0 25 25" xml:space="preserve">
<path id="Pointer_1_" fill="#0E1D25" d="M24.83,20.68l-9.19-8.76l5.67-3.45c0.16-0.1,0.26-0.28,0.24-0.48
	c-0.02-0.19-0.15-0.35-0.33-0.42L0.76,0.08c-0.16-0.09-0.35-0.1-0.51,0c-0.1,0.06-0.17,0.14-0.21,0.24c-0.06,0.13-0.05,0.29,0,0.42
	l7.51,20.51c0.07,0.18,0.23,0.31,0.42,0.33c0.19,0.02,0.38-0.07,0.48-0.24l3.5-5.73l8.71,9.24c0.09,0.1,0.22,0.15,0.36,0.16
	c0,0,0,0,0.01,0c0.13,0,0.26-0.05,0.35-0.15l3.46-3.46c0.1-0.1,0.15-0.22,0.15-0.36S24.93,20.77,24.83,20.68z"/>
</svg>
