<svg id="Layer_1" data-name="Layer 1" xmlns="http://www.w3.org/2000/svg" viewBox="0 0 25 25"><title>Present</title><path id="Present" d="M21.75,24H3.25A1.25,1.25,0,0,1,2,22.75V13H0V8.25A1.25,1.25,0,0,1,1.25,7h6A12.33,12.33,0,0,1,2.61,3.37l.78-.62A11.34,11.34,0,0,0,7.72,6.1,3.11,3.11,0,0,1,7,4.73,2.19,2.19,0,0,1,8.48,2.21a2.38,2.38,0,0,1,2.33.21,5,5,0,0,1,1.7,2.43,5,5,0,0,1,1.7-2.43,2.39,2.39,0,0,1,2.33-.22h0A2.19,2.19,0,0,1,18,4.73a3.11,3.11,0,0,1-.68,1.37,11.34,11.34,0,0,0,4.33-3.35l.78.62A12.33,12.33,0,0,1,17.75,7h6A1.25,1.25,0,0,1,25,8.25V13H23v9.75A1.25,1.25,0,0,1,21.75,24ZM3,13v9.75a.25.25,0,0,0,.25.25h18.5a.25.25,0,0,0,.25-.25V13H13V23H12V13Zm20-1h1V8.25A.25.25,0,0,0,23.75,8H13v4H12V8H1.25A.25.25,0,0,0,1,8.25V12ZM15.53,3a1.38,1.38,0,0,0-.78.25A5.52,5.52,0,0,0,13,7c2.29-.16,3.73-1.33,3.95-2.44a1.19,1.19,0,0,0-.83-1.41h0A1.59,1.59,0,0,0,15.53,3ZM9.47,3a1.59,1.59,0,0,0-.61.13A1.19,1.19,0,0,0,8,4.54C8.25,5.65,9.69,6.82,12,7a5.52,5.52,0,0,0-1.73-3.73A1.38,1.38,0,0,0,9.47,3Z" fill="#0e1d25"/></svg>