<svg id="Layer_1" data-name="Layer 1" xmlns="http://www.w3.org/2000/svg" viewBox="0 0 25 25"><title>Present</title><path id="Gift" d="M23.75,6h-6a12.31,12.31,0,0,0,4.65-3.63l-.78-.62A11.3,11.3,0,0,1,17.25,5.1,3.15,3.15,0,0,0,18,3.73a2.19,2.19,0,0,0-1.43-2.53h0a2.39,2.39,0,0,0-2.33.22,5,5,0,0,0-1.7,2.46,5,5,0,0,0-1.7-2.46,2.38,2.38,0,0,0-2.33-.21A2.19,2.19,0,0,0,7,3.73a3.15,3.15,0,0,0,.7,1.37A11.3,11.3,0,0,1,3.39,1.75l-.78.62A12.31,12.31,0,0,0,7.26,6h-6A1.25,1.25,0,0,0,0,7.25V12H12V7h1v5H25V7.25A1.25,1.25,0,0,0,23.75,6Zm-9-3.75A1.38,1.38,0,0,1,15.53,2a1.59,1.59,0,0,1,.61.13A1.19,1.19,0,0,1,17,3.54C16.75,4.65,15.31,5.82,13,6A5.52,5.52,0,0,1,14.75,2.25ZM8.86,2.13A1.59,1.59,0,0,1,9.47,2a1.38,1.38,0,0,1,.78.25A5.52,5.52,0,0,1,12,6C9.69,5.82,8.25,4.65,8,3.54A1.19,1.19,0,0,1,8.86,2.13ZM2,21.75A1.25,1.25,0,0,0,3.25,23H12V13H2ZM13,23h8.75A1.25,1.25,0,0,0,23,21.75V13H13Z" fill="#0e1d25"/></svg>