<svg id="Layer_1" data-name="Layer 1" xmlns="http://www.w3.org/2000/svg" viewBox="0 0 25 25"><title>Printer</title><path id="Printer" d="M17,19H8V18h9ZM25,8.25v12.5A1.25,1.25,0,0,1,23.75,22H20v2.5a.5.5,0,0,1-.5.5H5.5a.5.5,0,0,1-.5-.5V22H1.25A1.25,1.25,0,0,1,0,20.75V8.25A1.25,1.25,0,0,1,1.25,7H5V.5A.5.5,0,0,1,5.5,0h14a.5.5,0,0,1,.5.5V7h3.75A1.25,1.25,0,0,1,25,8.25ZM6,7H19V1H6Zm13,9H6v8H19Zm5-7.75A.25.25,0,0,0,23.75,8H1.25A.25.25,0,0,0,1,8.25v12.5a.25.25,0,0,0,.25.25H5V16H3V15H22v1H20v5h3.75a.25.25,0,0,0,.25-.25ZM19,12h3V11H19Zm-2,9H8v1h9Z" fill="#0e1d25"/></svg>