<svg id="Layer_1" data-name="Layer 1" xmlns="http://www.w3.org/2000/svg" viewBox="0 0 25 25"><title>Purse_1</title><path id="Handbag" d="M22.88,25H2.12A2.18,2.18,0,0,1,0,22.81a60.44,60.44,0,0,1,1.06-11.4,1.31,1.31,0,0,1,0-.21c.08-.35.19-.79.31-1.22l.15-.52c.08-.27.16-.52.23-.73A2.68,2.68,0,0,1,4.51,7H7V5.5a5.5,5.5,0,0,1,11,0V7h2.48a2.65,2.65,0,0,1,2.74,1.68c.15.44.28.9.41,1.37s.21.81.29,1.23c0,0,0,.07,0,.1A65.12,65.12,0,0,1,25,22.94,2.07,2.07,0,0,1,22.88,25Zm-21-12.33A62,62,0,0,0,1,22.81,1.19,1.19,0,0,0,2.12,24H22.88A1.08,1.08,0,0,0,24,22.94a67.1,67.1,0,0,0-.82-10.25L15,16.33v1.42A1.25,1.25,0,0,1,13.75,19h-2.5A1.25,1.25,0,0,1,10,17.75V16.32ZM11.25,15a.25.25,0,0,0-.25.25v2.5a.25.25,0,0,0,.25.25h2.5a.25.25,0,0,0,.25-.25v-2.5a.25.25,0,0,0-.25-.25Zm0-1h2.5A1.25,1.25,0,0,1,15,15.23l7.78-3.46a.26.26,0,0,0,.17-.25c-.08-.38-.17-.76-.26-1.12s-.26-.94-.42-1.4a1.75,1.75,0,0,0-1.79-1h-16A1.78,1.78,0,0,0,2.72,9c-.07.2-.13.41-.2.62l-.2.74c-.09.36-.18.73-.26,1.11a.28.28,0,0,0,.17.23L10,15.23A1.25,1.25,0,0,1,11.25,14ZM8,7h9V5.5a4.5,4.5,0,0,0-9,0Z" fill="#0e1d25"/></svg>