<svg id="Layer_1" data-name="Layer 1" xmlns="http://www.w3.org/2000/svg" viewBox="0 0 25 25"><title>Purse</title><path id="Purse" d="M24.62,8.44A1.21,1.21,0,0,0,23.71,8H18V5.5a5.5,5.5,0,0,0-11,0V8H1.29a1.21,1.21,0,0,0-.91.44A1.53,1.53,0,0,0,0,9.61l1.9,14.28A1.29,1.29,0,0,0,3.19,25H21.81a1.35,1.35,0,0,0,1.28-1.19L25,9.61A1.52,1.52,0,0,0,24.62,8.44ZM8,5.5a4.5,4.5,0,0,1,9,0V8H8ZM22.1,23.67c0,.16-.17.33-.29.33H3.19a.29.29,0,0,1-.29-.25L1,9.48a.53.53,0,0,1,.13-.38A.24.24,0,0,1,1.29,9H23.71a.24.24,0,0,1,.16.1.53.53,0,0,1,.13.38ZM8,12a1,1,0,1,1-1-1A1,1,0,0,1,8,12Zm11,0a1,1,0,1,1-1-1A1,1,0,0,1,19,12Z" fill="#0e1d25"/></svg>