<svg id="Layer_1" data-name="Layer 1" xmlns="http://www.w3.org/2000/svg" viewBox="0 0 25 25"><title>Purse_1</title><path id="Handbag" d="M10,15.25A1.25,1.25,0,0,1,11.25,14h2.5A1.25,1.25,0,0,1,15,15.25v.13l8.94-4a23.8,23.8,0,0,0-.72-2.72A2.65,2.65,0,0,0,20.48,7H18V5.5a5.5,5.5,0,0,0-11,0V7H4.51A2.69,2.69,0,0,0,1.77,8.72a24.11,24.11,0,0,0-.7,2.7l8.93,4ZM8,5.5a4.5,4.5,0,0,1,9,0V7H8Zm16.14,6.91L15,16.46l0-.07v1.37A1.25,1.25,0,0,1,13.75,19h-2.5A1.25,1.25,0,0,1,10,17.75V16.4l0,.08L.87,12.43A62.87,62.87,0,0,0,0,22.81,2.18,2.18,0,0,0,2.12,25H22.88A2.07,2.07,0,0,0,25,22.94,68.18,68.18,0,0,0,24.14,12.41Z" fill="#0e1d25"/></svg>