<svg id="Layer_1" data-name="Layer 1" xmlns="http://www.w3.org/2000/svg" viewBox="0 0 25 25"><title>Quill</title><path id="Quill" d="M25,.51a.5.5,0,0,0-.5-.46c-6.8,0-8.21,1.1-8.43,1.32l-.07.1L15.09,3,14.3,2a.49.49,0,0,0-.47-.18A9.66,9.66,0,0,0,8.57,4.62a.51.51,0,0,0-.12.27L8,8.47A15.52,15.52,0,0,1,6.91,6.8a.5.5,0,0,0-.84-.06c-.13.18-3.14,4.34-1.45,7.84C3.19,16.71,1,19.91.7,20.31a.49.49,0,0,0-.17.31L0,24.49a.5.5,0,0,0,.82.45L4,22.27,4,22.18l.81-1.12c.71-1,1.47-2,2.31-3.15,3.58,2.91,8.69-.46,8.91-.6a.5.5,0,0,0,.22-.49L15.84,14l1.47,1.23a.5.5,0,0,0,.53.07c1.78-.84,3.26-3.46,3.32-3.57a.5.5,0,0,0,0-.44L20.26,9.1H22A.5.5,0,0,0,22.26,9C25.47,6.9,25,.77,25,.51ZM21.83,8.1H19.5a.5.5,0,0,0-.46.7l1.14,2.62a9.3,9.3,0,0,1-2.48,2.8l-2.22-1.85a.5.5,0,0,0-.81.46l.58,3.83c-1,.61-4.88,2.61-7.48.48A51,51,0,0,1,21.14,4.64l-.53-.85C12.33,9,7.33,15.9,4,20.48l-.77,1.07L1.17,23.33l.33-2.44c.44-.52,1.41-2,4.11-6a.5.5,0,0,0,0-.52C4.36,12.1,5.71,9.26,6.45,8A10.39,10.39,0,0,0,8,10a.5.5,0,0,0,.84-.3l.6-4.51a8.91,8.91,0,0,1,4.29-2.29l1.05,1.3a.49.49,0,0,0,.43.18.5.5,0,0,0,.39-.25l1.2-2.05c.26-.16,1.79-1,7.21-1C24,2.44,24,6.54,21.83,8.1Z" fill="#0e1d25"/></svg>