<svg id="Layer_1" data-name="Layer 1" xmlns="http://www.w3.org/2000/svg" viewBox="0 0 25 25"><title>Quill</title><path id="Quill" d="M24.86.48a.5.5,0,0,0-.5-.45C17.59,0,16.19,1.13,16,1.35l-.07.1L15,3l-.78-1a.5.5,0,0,0-.47-.18A9.62,9.62,0,0,0,8.54,4.58a.5.5,0,0,0-.12.26L7.94,8.43A15.43,15.43,0,0,1,6.88,6.76a.5.5,0,0,0-.4-.26.51.51,0,0,0-.44.2c-.13.18-3.13,4.33-1.45,7.83C3.17,16.67,1,19.87.69,20.26a.49.49,0,0,0-.17.31L0,24.44a.5.5,0,0,0,.82.44l3.11-2.66L4,22.13,4.82,21c.71-1,1.47-2,2.3-3.14h0A54.25,54.25,0,0,1,21.77,3.76l.53.84A52.5,52.5,0,0,0,8,18.42c3.47,1.86,7.83-1,8-1.15a.49.49,0,0,0,.21-.48l-.43-2.86,1.47,1.23a.5.5,0,0,0,.53.07c1.77-.84,3.25-3.46,3.31-3.57a.49.49,0,0,0,0-.44l-.93-2.15H21.9A.5.5,0,0,0,22.17,9C25.36,6.86,24.88.74,24.86.48Z" fill="#0e1d25"/></svg>