<svg id="Layer_1" data-name="Layer 1" xmlns="http://www.w3.org/2000/svg" viewBox="0 0 25 25"><title>Rubber Stamp</title><path id="Rubber_Stamp" data-name="Rubber Stamp" d="M21.75,25H3.25A1.25,1.25,0,0,1,2,23.75V22H1.26A1.26,1.26,0,0,1,0,20.74V18a2,2,0,0,1,2-2H6a4,4,0,0,0,3.93-2.9,3.58,3.58,0,0,0,.11-.85A9.21,9.21,0,0,0,9,8.08,8.15,8.15,0,0,1,8,4.54,4.54,4.54,0,0,1,9.67,1,4.49,4.49,0,0,1,13.43.1,4.67,4.67,0,0,1,17,5.29a8.9,8.9,0,0,1-.85,2.6A9.89,9.89,0,0,0,15,12.25a3.49,3.49,0,0,0,.11.84A4,4,0,0,0,19,16H23a2,2,0,0,1,2,2v2.78A1.25,1.25,0,0,1,23.75,22H23v1.75A1.25,1.25,0,0,1,21.75,25ZM3,22v1.75a.25.25,0,0,0,.25.25h18.5a.25.25,0,0,0,.25-.25V22ZM2,17a1,1,0,0,0-1,1v2.77a.26.26,0,0,0,.26.26H23.75a.25.25,0,0,0,.25-.25V18a1,1,0,0,0-1-1H19a5,5,0,0,1-4.9-3.66A4.48,4.48,0,0,1,14,12.25a10.86,10.86,0,0,1,1.19-4.76A8,8,0,0,0,16,5.17a3.67,3.67,0,0,0-2.73-4.1,3.46,3.46,0,0,0-2.92.71A3.54,3.54,0,0,0,9,4.54a7.14,7.14,0,0,0,.86,3.13A10.2,10.2,0,0,1,11,12.24a4.52,4.52,0,0,1-.14,1.1A5,5,0,0,1,6,17Z" fill="#0e1d25"/></svg>