<svg id="Layer_1" data-name="Layer 1" xmlns="http://www.w3.org/2000/svg" viewBox="0 0 25 25"><title>SD Card</title><path id="SD_Card" data-name="SD Card" d="M21.75,0H8.31a1.24,1.24,0,0,0-.88.37L2.37,5.43A1.26,1.26,0,0,0,2,6.31V23.75A1.25,1.25,0,0,0,3.25,25h18.5A1.25,1.25,0,0,0,23,23.75V1.25A1.25,1.25,0,0,0,21.75,0ZM14,2.5a.5.5,0,0,1,.5-.5h2a.5.5,0,0,1,.5.5v3a.5.5,0,0,1-.5.5h-2a.5.5,0,0,1-.5-.5Zm-4,0a.5.5,0,0,1,.5-.5h2a.5.5,0,0,1,.5.5v3a.5.5,0,0,1-.5.5h-2a.5.5,0,0,1-.5-.5Zm10,19a.5.5,0,0,1-.5.5H5.5a.5.5,0,0,1-.5-.5v-9a.5.5,0,0,1,.5-.5h14a.5.5,0,0,1,.5.5Zm1-16a.5.5,0,0,1-.5.5h-2a.5.5,0,0,1-.5-.5v-3a.5.5,0,0,1,.5-.5h2a.5.5,0,0,1,.5.5Z" fill="#0e1d25"/></svg>