<svg id="Layer_1" data-name="Layer 1" xmlns="http://www.w3.org/2000/svg" viewBox="0 0 25 25"><title>SD Card</title><path id="SD_Card" data-name="SD Card" d="M21.75,25H3.25A1.25,1.25,0,0,1,2,23.75V6.31a1.26,1.26,0,0,1,.37-.88L7.43.37A1.24,1.24,0,0,1,8.31,0H21.75A1.25,1.25,0,0,1,23,1.25v22.5A1.25,1.25,0,0,1,21.75,25ZM8.31,1a.25.25,0,0,0-.18.07L3.07,6.13A.25.25,0,0,0,3,6.31V23.75a.25.25,0,0,0,.25.25h18.5a.25.25,0,0,0,.25-.25V1.25A.25.25,0,0,0,21.75,1ZM18.75,22H6.25A1.25,1.25,0,0,1,5,20.75v-7.5A1.25,1.25,0,0,1,6.25,12h12.5A1.25,1.25,0,0,1,20,13.25v7.5A1.25,1.25,0,0,1,18.75,22ZM6.25,13a.25.25,0,0,0-.25.25v7.5a.25.25,0,0,0,.25.25h12.5a.25.25,0,0,0,.25-.25v-7.5a.25.25,0,0,0-.25-.25ZM20.5,6h-2a.5.5,0,0,1-.5-.5v-3a.5.5,0,0,1,.5-.5h2a.5.5,0,0,1,.5.5v3A.5.5,0,0,1,20.5,6ZM19,5h1V3H19ZM16.5,6h-2a.5.5,0,0,1-.5-.5v-3a.5.5,0,0,1,.5-.5h2a.5.5,0,0,1,.5.5v3A.5.5,0,0,1,16.5,6ZM15,5h1V3H15ZM12.5,6h-2a.5.5,0,0,1-.5-.5v-3a.5.5,0,0,1,.5-.5h2a.5.5,0,0,1,.5.5v3A.5.5,0,0,1,12.5,6ZM11,5h1V3H11Z" fill="#0e1d25"/></svg>