<svg id="Layer_1" data-name="Layer 1" xmlns="http://www.w3.org/2000/svg" viewBox="0 0 25 25"><title>Send Mail</title><path id="Send_Mail_2" data-name="Send Mail 2" d="M23.75,5H7.25A1.25,1.25,0,0,0,6,6.25v13.5A1.25,1.25,0,0,0,7.25,21h16.5A1.25,1.25,0,0,0,25,19.75V6.25A1.25,1.25,0,0,0,23.75,5ZM7.25,6h16.5a.25.25,0,0,1,.25.25h0l-8.5,8L7,6.28H7A.25.25,0,0,1,7.22,6Zm16.5,14H7.25A.25.25,0,0,1,7,19.75V7.66l8.16,7.7a.5.5,0,0,0,.69,0L24,7.66V19.75A.25.25,0,0,1,23.75,20ZM5,11H0V10H5Zm0,3H1V13H5Zm0,3H2V16H5Z" fill="#0e1d25"/></svg>