<svg id="Layer_1" data-name="Layer 1" xmlns="http://www.w3.org/2000/svg" viewBox="0 0 25 25"><title>Server</title><path id="Server" d="M2,5C2,2.2,6.61,0,12.49,0S23,2.2,23,5s-4.61,5-10.48,5S2,7.8,2,5Zm10.47,6.2C7.77,11.2,3.88,9.87,2,7.85V10c0,2.8,4.61,5,10.5,5S23,12.8,23,10V7.78C21.15,9.84,17.23,11.2,12.47,11.2ZM2,12.85V15c0,2.8,4.61,5,10.5,5S23,17.8,23,15V12.78c-1.85,2.06-5.77,3.42-10.53,3.42S3.88,14.87,2,12.85Zm0,5V20c0,2.8,4.61,5,10.5,5S23,22.8,23,20V17.78c-1.85,2.06-5.77,3.42-10.53,3.42S3.88,19.87,2,17.85Z" fill="#0e1d25"/></svg>