<svg id="Layer_1" data-name="Layer 1" xmlns="http://www.w3.org/2000/svg" viewBox="0 0 25 25"><title>Server</title><path id="Server" d="M12.5,25C6.61,25,2,22.8,2,20V5C2,2.2,6.61,0,12.5,0S23,2.2,23,5V20C23,22.8,18.39,25,12.5,25ZM3,17.17V20c0,1.93,3.82,4,9.5,4S22,21.93,22,20V17.17C20.33,18.86,16.75,20,12.5,20S4.67,18.86,3,17.17ZM3,15c0,1.93,3.82,4,9.5,4S22,16.93,22,15V12.17C20.33,13.86,16.75,15,12.5,15S4.67,13.86,3,12.17Zm0-5c0,1.93,3.82,4,9.5,4S22,11.93,22,10V7.17C20.33,8.86,16.75,10,12.5,10S4.67,8.86,3,7.17Zm9.5-9C6.82,1,3,3.07,3,5s3.82,4,9.5,4S22,6.93,22,5,18.18,1,12.5,1Z" fill="#0e1d25"/></svg>