<svg id="Layer_1" data-name="Layer 1" xmlns="http://www.w3.org/2000/svg" viewBox="0 0 25 25"><title>Settings</title><path id="Settings" d="M24,10.3,22.38,10a1.87,1.87,0,0,1-1.16-2.78L22.15,6A1.28,1.28,0,0,0,22,4.34L20.65,3A1.28,1.28,0,0,0,19,2.85l-1.3.93a1.93,1.93,0,0,1-1.68.13A2,2,0,0,1,15,2.62L14.7,1a1.28,1.28,0,0,0-1.23-1H11.54A1.28,1.28,0,0,0,10.3,1L10,2.62A1.87,1.87,0,0,1,7.26,3.78L6,2.85A1.28,1.28,0,0,0,4.35,3L3,4.34A1.28,1.28,0,0,0,2.85,6l.93,1.3A1.87,1.87,0,0,1,2.62,10L1,10.3a1.28,1.28,0,0,0-1,1.23v1.93A1.28,1.28,0,0,0,1,14.7L2.62,15a1.87,1.87,0,0,1,1.16,2.78L2.85,19A1.28,1.28,0,0,0,3,20.66L4.35,22A1.28,1.28,0,0,0,6,22.15l1.3-.93A1.87,1.87,0,0,1,10,22.38L10.3,24a1.28,1.28,0,0,0,1.23,1h1.93a1.28,1.28,0,0,0,1.23-1L15,22.38a1.87,1.87,0,0,1,2.78-1.16l1.3.93A1.28,1.28,0,0,0,20.65,22L22,20.66A1.28,1.28,0,0,0,22.15,19l-.93-1.3A1.87,1.87,0,0,1,22.38,15L24,14.7a1.28,1.28,0,0,0,1-1.23V11.54A1.28,1.28,0,0,0,24,10.3Zm-7,2.2A4.5,4.5,0,1,1,12.5,8,4.5,4.5,0,0,1,17,12.5Z" fill="#0e1d25"/></svg>