<svg id="Layer_1" data-name="Layer 1" xmlns="http://www.w3.org/2000/svg" viewBox="0 0 25 25"><title>Settings</title><path id="Settings" d="M13.46,25H11.54a1.28,1.28,0,0,1-1.23-1L10,22.38a1.87,1.87,0,0,0-2.78-1.16L6,22.15A1.28,1.28,0,0,1,4.35,22L3,20.66A1.28,1.28,0,0,1,2.85,19l.93-1.3A1.87,1.87,0,0,0,2.62,15h0L1,14.7a1.28,1.28,0,0,1-1-1.23V11.54A1.28,1.28,0,0,1,1,10.3L2.62,10A1.87,1.87,0,0,0,3.78,7.26L2.85,6A1.28,1.28,0,0,1,3,4.34L4.35,3A1.28,1.28,0,0,1,6,2.85l1.3.93A1.87,1.87,0,0,0,10,2.62L10.3,1a1.28,1.28,0,0,1,1.23-1h1.93A1.28,1.28,0,0,1,14.7,1L15,2.62a2,2,0,0,0,1.1,1.28,1.93,1.93,0,0,0,1.68-.13L19,2.85A1.28,1.28,0,0,1,20.65,3L22,4.34A1.28,1.28,0,0,1,22.15,6l-.93,1.3A1.87,1.87,0,0,0,22.38,10L24,10.3a1.28,1.28,0,0,1,1,1.23v1.93a1.28,1.28,0,0,1-1,1.23L22.38,15a1.87,1.87,0,0,0-1.16,2.78l.93,1.3A1.28,1.28,0,0,1,22,20.66L20.65,22a1.28,1.28,0,0,1-1.61.13l-1.3-.93A1.87,1.87,0,0,0,15,22.38L14.7,24A1.28,1.28,0,0,1,13.46,25ZM8.21,20A2.83,2.83,0,0,1,11,22.21l.26,1.58a.28.28,0,0,0,.25.21h1.93a.28.28,0,0,0,.25-.21L14,22.22a2.86,2.86,0,0,1,4.35-1.81l1.3.93a.28.28,0,0,0,.32,0l1.36-1.36a.28.28,0,0,0,0-.32l-.93-1.3A2.86,2.86,0,0,1,22.21,14l1.58-.26a.28.28,0,0,0,.21-.25V11.54a.28.28,0,0,0-.21-.25L22.21,11a2.86,2.86,0,0,1-1.81-4.35l.93-1.3a.28.28,0,0,0,0-.32L19.95,3.69a.28.28,0,0,0-.32,0l-1.3.93A2.86,2.86,0,0,1,14,2.79l-.26-1.58A.28.28,0,0,0,13.46,1H11.54a.28.28,0,0,0-.25.21L11,2.78A2.86,2.86,0,0,1,6.68,4.59l-1.3-.93a.28.28,0,0,0-.32,0L3.69,5.05a.28.28,0,0,0,0,.32l.93,1.3A2.86,2.86,0,0,1,2.79,11l-1.58.26a.28.28,0,0,0-.21.25v1.93a.28.28,0,0,0,.21.25L2.79,14a2.86,2.86,0,0,1,1.81,4.35l-.93,1.3a.28.28,0,0,0,0,.32l1.37,1.36a.28.28,0,0,0,.32,0l1.3-.93A2.65,2.65,0,0,1,8.21,20Zm4.29-2A5.5,5.5,0,1,1,18,12.5,5.51,5.51,0,0,1,12.5,18Zm0-10A4.5,4.5,0,1,0,17,12.5,4.5,4.5,0,0,0,12.5,8Z" fill="#0e1d25"/></svg>