<svg id="Layer_1" data-name="Layer 1" xmlns="http://www.w3.org/2000/svg" viewBox="0 0 25 25"><title>Shop</title><path id="Shop" d="M24.49,5.54,21.27.24A.5.5,0,0,0,20.84,0H4.19a.5.5,0,0,0-.43.24L.5,5.6A4.06,4.06,0,0,0,0,7.3V8a3,3,0,0,0,2,2.88V23.72A1.36,1.36,0,0,0,3.37,25H21.63A1.36,1.36,0,0,0,23,23.72V10.85A3,3,0,0,0,25,8V7.3A4.25,4.25,0,0,0,24.49,5.54ZM22,19H3V11A2.92,2.92,0,0,0,5.34,9.73a2.88,2.88,0,0,0,4.78,0,2.87,2.87,0,0,0,4.76,0,2.87,2.87,0,0,0,4.77,0A3,3,0,0,0,22,11Z" fill="#0e1d25"/></svg>