<svg id="Layer_1" data-name="Layer 1" xmlns="http://www.w3.org/2000/svg" viewBox="0 0 25 25"><title>Shop</title><path id="Shop" d="M21.63,25H3.37A1.36,1.36,0,0,1,2,23.72V10.85A3,3,0,0,1,0,8V7.3A4.06,4.06,0,0,1,.5,5.6L3.76.24A.5.5,0,0,1,4.19,0H20.84a.5.5,0,0,1,.43.24l3.22,5.3A4.25,4.25,0,0,1,25,7.3V8a3,3,0,0,1-2,2.89V23.72A1.36,1.36,0,0,1,21.63,25ZM3,20v3.72c0,.13.2.28.37.28H21.63c.17,0,.37-.15.37-.28V11a3,3,0,0,1-2.36-1.28,2.87,2.87,0,0,1-4.77,0,2.87,2.87,0,0,1-4.76,0,2.88,2.88,0,0,1-4.78,0A2.92,2.92,0,0,1,3,11v8H22v1ZM2.87,10H3A1.93,1.93,0,0,0,4.76,8.63a.6.6,0,0,1,.58-.43h0a.6.6,0,0,1,.58.43,1.89,1.89,0,0,0,3.62,0,.62.62,0,0,1,1.15,0,1.88,1.88,0,0,0,3.61,0,.6.6,0,0,1,.58-.43h0a.6.6,0,0,1,.58.44,1.87,1.87,0,0,0,3.61,0,.6.6,0,0,1,.57-.44h0a.6.6,0,0,1,.58.43,2,2,0,0,0,2.35,1.31A2,2,0,0,0,24,8V7.3A3.3,3.3,0,0,0,23.62,6L20.56,1H4.47L1.37,6.1A3.14,3.14,0,0,0,1,7.3V8a2,2,0,0,0,1.46,2A2,2,0,0,0,2.87,10ZM14.49,8.92h0Zm-4,0h0Zm-4.78,0h0Zm13.54,0h0Z" fill="#0e1d25"/></svg>