<svg id="Layer_1" data-name="Layer 1" xmlns="http://www.w3.org/2000/svg" viewBox="0 0 25 25"><title>Star</title><path id="Star" d="M5.53,25a1.06,1.06,0,0,1-.61-.19,1,1,0,0,1-.41-1.19L7,15.12.4,10A1.12,1.12,0,0,1,.07,8.73a1.06,1.06,0,0,1,1-.73h8L11.49.74a1,1,0,0,1,1-.71,1.1,1.1,0,0,1,1,.76L15.93,8h8a1.06,1.06,0,0,1,1,.73A1.12,1.12,0,0,1,24.62,10L18,15.08l2.45,8.51a1.07,1.07,0,0,1-.42,1.19,1,1,0,0,1-1.25,0L12.5,19.91,6.18,24.77A1.06,1.06,0,0,1,5.53,25ZM1.07,9C.91,9,1,9.17,1,9.21l6.82,5.32a.5.5,0,0,1,.17.53L5.48,23.9l.4.47-.3-.4,6.62-5.09a.5.5,0,0,1,.61,0L19.43,24l.1-.09L17,15a.5.5,0,0,1,.17-.53L24,9.2c.09-.06.15-.2,0-.2H15.56a.5.5,0,0,1-.47-.34L12.56,1.1h0A.1.1,0,0,0,12.5,1L9.91,8.66A.5.5,0,0,1,9.44,9Z" fill="#0e1d25"/></svg>