<svg id="Layer_1" data-name="Layer 1" xmlns="http://www.w3.org/2000/svg" viewBox="0 0 25 25"><title>Thumbs Up</title><path id="Thumbs_Up" data-name="Thumbs Up" d="M7,22.75A1.25,1.25,0,0,1,5.75,24H2.25A1.25,1.25,0,0,1,1,22.75V11.25A1.25,1.25,0,0,1,2.25,10h3.5A1.24,1.24,0,0,1,7,11.15l0,0V22.75ZM24,13a2,2,0,0,0-2-2l-6.2,0h0a.24.24,0,0,1-.21-.12.24.24,0,0,1,0-.25A22.11,22.11,0,0,0,17.25,5.4l.14-.59a3,3,0,0,0-.48-2.44A3,3,0,0,0,14.8,1.14L13.51,1a.5.5,0,0,0-.55.44,14.34,14.34,0,0,1-2.28,6.17A22.89,22.89,0,0,1,8,10.28V23.14a8.73,8.73,0,0,0,3.86.86H19a2,2,0,0,0,1.66-3.11,2,2,0,0,0,1-3,2,2,0,0,0,1-3A2,2,0,0,0,24,13Z" fill="#0e1d25"/></svg>