<svg id="Layer_1" data-name="Layer 1" xmlns="http://www.w3.org/2000/svg" viewBox="0 0 25 25"><title>Video Camera</title><path id="Video_Camera" data-name="Video Camera" d="M24.76,7.07a.5.5,0,0,0-.49,0L20,9.26v-4A1.25,1.25,0,0,0,18.75,4H1.25A1.25,1.25,0,0,0,0,5.25v14.5A1.25,1.25,0,0,0,1.25,21h17.5A1.25,1.25,0,0,0,20,19.75v-4l4.27,2.2A.5.5,0,0,0,25,17.5V7.5A.5.5,0,0,0,24.76,7.07ZM19,19.75a.25.25,0,0,1-.25.25H1.25A.25.25,0,0,1,1,19.75V5.25A.25.25,0,0,1,1.25,5h17.5a.25.25,0,0,1,.25.25Zm5-3.07-4-2.06V10.38l4-2.06Z" fill="#0e1d25"/></svg>