<svg id="Layer_1" data-name="Layer 1" xmlns="http://www.w3.org/2000/svg" viewBox="0 0 25 25"><title>Volume</title><path id="Volume" d="M13.23,25a1,1,0,0,1-.63-.26L5.3,18H1.25A1.25,1.25,0,0,1,0,16.75V8.25A1.25,1.25,0,0,1,1.25,7H5.3L12.58.27a.87.87,0,0,1,1-.21A.87.87,0,0,1,14,.93V24.07a.87.87,0,0,1-.46.86A.74.74,0,0,1,13.23,25ZM6,17.28l7,6.47V1.26L6,7.72ZM1.25,8A.25.25,0,0,0,1,8.25v8.5a.25.25,0,0,0,.25.25H5V8ZM22.51,20.39l-.81-.58A12.37,12.37,0,0,0,24,12.53a12.38,12.38,0,0,0-2.33-7.32l.81-.59A13.38,13.38,0,0,1,25,12.53,13.36,13.36,0,0,1,22.51,20.39Zm-2.2-2.22-.83-.56a9.2,9.2,0,0,0,0-10.19l.83-.56a10.2,10.2,0,0,1,0,11.31Zm-2.2-2.25-.86-.5A5.74,5.74,0,0,0,18,12.53a5.67,5.67,0,0,0-.79-2.91l.86-.51A6.66,6.66,0,0,1,19,12.53,6.74,6.74,0,0,1,18.1,15.92Z" fill="#0e1d25"/></svg>