<svg id="Layer_1" data-name="Layer 1" xmlns="http://www.w3.org/2000/svg" viewBox="0 0 25 25"><title>Volume</title><path id="Volume" d="M4,7.5v10a1.43,1.43,0,0,0,.09.5H1.25A1.25,1.25,0,0,1,0,16.75V8.25A1.25,1.25,0,0,1,1.25,7H4.09A1.43,1.43,0,0,0,4,7.5ZM13.54.07a.87.87,0,0,0-1,.21L5.16,7.13A.5.5,0,0,0,5,7.5v10a.5.5,0,0,0,.16.37l7.44,6.88a1,1,0,0,0,.63.26.74.74,0,0,0,.31-.07.87.87,0,0,0,.46-.86V.93A.87.87,0,0,0,13.54.07ZM19,12.53a6.66,6.66,0,0,0-.93-3.43l-.86.51A5.66,5.66,0,0,1,18,12.53a5.74,5.74,0,0,1-.76,2.89l.86.5A6.74,6.74,0,0,0,19,12.53Zm3,0a10,10,0,0,0-1.73-5.67l-.83.56a9.2,9.2,0,0,1,0,10.19l.83.56A10,10,0,0,0,22,12.53Zm3,0a13.38,13.38,0,0,0-2.51-7.9l-.81.59A12.38,12.38,0,0,1,24,12.53a12.37,12.37,0,0,1-2.31,7.28l.81.58A13.36,13.36,0,0,0,25,12.53Z" fill="#0e1d25"/></svg>