<svg id="Layer_1" data-name="Layer 1" xmlns="http://www.w3.org/2000/svg" viewBox="0 0 25 25"><title>Webpage</title><path id="Webpage" d="M23,2H2A2,2,0,0,0,0,4V22a2,2,0,0,0,2,2H23a2,2,0,0,0,2-2V4A2,2,0,0,0,23,2Zm1,20a1,1,0,0,1-1,1H2a1,1,0,0,1-1-1V8H24ZM24,7H1V4A1,1,0,0,1,2,3H23a1,1,0,0,1,1,1ZM4,4.5v1a.5.5,0,0,1-.5.5h-1A.5.5,0,0,1,2,5.5v-1A.5.5,0,0,1,2.5,4h1A.5.5,0,0,1,4,4.5Zm3,0v1a.5.5,0,0,1-.5.5h-1A.5.5,0,0,1,5,5.5v-1A.5.5,0,0,1,5.5,4h1A.5.5,0,0,1,7,4.5Zm3,0v1a.5.5,0,0,1-.5.5h-1A.5.5,0,0,1,8,5.5v-1A.5.5,0,0,1,8.5,4h1A.5.5,0,0,1,10,4.5Z" fill="#0e1d25"/></svg>