<svg id="Layer_1" data-name="Layer 1" xmlns="http://www.w3.org/2000/svg" viewBox="0 0 25 25"><title>Wireless</title><path id="Wireless" d="M15,19.5A2.5,2.5,0,1,1,12.5,17,2.5,2.5,0,0,1,15,19.5ZM12.5,4A16.87,16.87,0,0,0,.28,9.31l1.44,1.39A14.88,14.88,0,0,1,12.5,6a14.88,14.88,0,0,1,10.78,4.69l1.44-1.39A16.87,16.87,0,0,0,12.5,4Zm0,4a11.72,11.72,0,0,0-8.94,4.35l1.52,1.3A9.75,9.75,0,0,1,12.5,10a9.75,9.75,0,0,1,7.42,3.65l1.52-1.3A11.72,11.72,0,0,0,12.5,8ZM6.77,14.57l1.47,1.36a5.68,5.68,0,0,1,8.53,0l1.47-1.36a7.68,7.68,0,0,0-11.47,0Z" fill="#0e1d25"/></svg>